<svg width="24" height="24" viewBox="0 0 24 24" fill="none" xmlns="http://www.w3.org/2000/svg">
<path opacity="0.7" d="M13.4406 20.2969L13.2196 21.402C13.106 21.97 13.5405 22.5 14.1198 22.5C14.3632 22.5 14.5967 22.4033 14.7689 22.2311L17 20L22.9023 14.5518C23.2504 14.2304 23.3253 13.7088 23.0815 13.3025L22.659 12.5983C22.3242 12.0404 21.5544 11.9456 21.0944 12.4056L13.7141 19.7859C13.5745 19.9255 13.4793 20.1033 13.4406 20.2969Z" fill="#219653"/>
<path fill-rule="evenodd" clip-rule="evenodd" d="M22.63 14.87L15 22.5L11.25 23.25L12 19.5L19.63 11.87C20.0265 11.4728 20.5648 11.2496 21.126 11.2496C21.6872 11.2496 22.2255 11.4728 22.622 11.87L22.63 11.878C23.0272 12.2745 23.2504 12.8128 23.2504 13.374C23.2504 13.9352 23.0272 14.4735 22.63 14.87V14.87Z" stroke="#130E20" stroke-width="1.5" stroke-linecap="round" stroke-linejoin="round"/>
<path d="M3.75 6.75H14.25" stroke="#130E20" stroke-width="1.5" stroke-linecap="round" stroke-linejoin="round"/>
<path d="M3.75 11.25H14.25" stroke="#130E20" stroke-width="1.5" stroke-linecap="round" stroke-linejoin="round"/>
<path d="M3.75 15.75H9" stroke="#130E20" stroke-width="1.5" stroke-linecap="round" stroke-linejoin="round"/>
<path d="M7.5 20.25H2.25C1.42157 20.25 0.75 19.5784 0.75 18.75V2.25C0.75 1.42157 1.42157 0.75 2.25 0.75H12.879C13.2765 0.750085 13.6578 0.907982 13.939 1.189L16.811 4.061C17.092 4.3422 17.2499 4.72345 17.25 5.121V8.25" stroke="#130E20" stroke-width="1.5" stroke-linecap="round" stroke-linejoin="round"/>
</svg>
