<svg width="26" height="26" viewBox="0 0 26 26" fill="none" xmlns="http://www.w3.org/2000/svg">
<g clip-path="url(#clip0_107_446)">
<path d="M24.24 6.78387C24.2396 6.76493 24.2384 6.74604 24.2362 6.72734C24.2356 6.72146 24.235 6.71552 24.2342 6.70969C24.2308 6.68687 24.2265 6.66422 24.2205 6.64199C24.2198 6.63904 24.2186 6.63628 24.2178 6.6334C24.2123 6.61399 24.2057 6.59493 24.1982 6.57616C24.1958 6.57016 24.1932 6.56422 24.1906 6.55828C24.1832 6.54128 24.175 6.52469 24.1659 6.5084C24.1636 6.50434 24.1616 6.5001 24.1593 6.4961C24.1473 6.47575 24.1342 6.45599 24.1198 6.43704L24.1162 6.43269C24.1031 6.41593 24.0889 6.39987 24.0739 6.38446C24.0698 6.38022 24.0655 6.3761 24.0613 6.37198C24.048 6.35922 24.0342 6.34704 24.0196 6.3354C24.015 6.33175 24.0107 6.32799 24.0061 6.32451C23.9878 6.31075 23.9688 6.29763 23.9485 6.28587L13.2961 0.0799243C13.1131 -0.0267228 12.8869 -0.0267228 12.7039 0.0799243L2.05145 6.28581C2.03116 6.29763 2.01216 6.31069 1.99387 6.32446C1.98922 6.32793 1.98492 6.33175 1.98039 6.33534C1.96581 6.34698 1.95192 6.35916 1.93869 6.37193C1.93439 6.37604 1.93016 6.38016 1.92604 6.3844C1.91104 6.39981 1.89687 6.41587 1.88381 6.43263L1.88022 6.43699C1.86575 6.45593 1.85269 6.47569 1.84069 6.49604C1.83834 6.50004 1.83628 6.50428 1.83404 6.50834C1.82498 6.52463 1.81675 6.54122 1.80934 6.55822C1.80675 6.56416 1.80416 6.5701 1.80175 6.5761C1.79428 6.59487 1.78769 6.61393 1.78216 6.63334C1.78134 6.63622 1.78022 6.63904 1.77945 6.64193C1.77351 6.66416 1.76916 6.68681 1.76581 6.70963C1.76498 6.71546 1.76445 6.7214 1.76375 6.72728C1.76157 6.74604 1.76034 6.76487 1.75998 6.78381C1.75992 6.78722 1.75928 6.79057 1.75928 6.79404V19.2058C1.75928 19.4152 1.87051 19.6087 2.05139 19.7141L12.7039 25.92L12.709 25.9225C12.73 25.9345 12.7517 25.9455 12.7742 25.9549C12.7955 25.9637 12.8183 25.9712 12.8408 25.9775C12.8465 25.9791 12.8522 25.9805 12.8579 25.9819C12.8755 25.9863 12.8934 25.9898 12.9116 25.9926C12.9176 25.9935 12.9236 25.9946 12.9297 25.9953C12.9528 25.9981 12.9762 25.9999 13 25.9999C13.0238 25.9999 13.0472 25.9981 13.0703 25.9953C13.0763 25.9946 13.0823 25.9935 13.0884 25.9926C13.1066 25.9898 13.1245 25.9863 13.142 25.9819C13.1477 25.9805 13.1535 25.9792 13.1592 25.9775C13.1816 25.9712 13.2036 25.964 13.2249 25.9552C13.2475 25.9458 13.2699 25.9345 13.2909 25.9225L13.2961 25.92L23.9486 19.7141C24.1295 19.6087 24.2407 19.4152 24.2407 19.2058V6.79404C24.2407 6.79063 24.24 6.78734 24.24 6.78387ZM13 12.3192L8.84234 9.89705L18.3262 4.37193L22.4839 6.7941L13 12.3192ZM13 1.26898L17.1576 3.69116L7.67375 9.21628L3.5161 6.7941L13 1.26898ZM23.0642 18.8678L13.5882 24.3883V22C13.5882 21.6751 13.3249 21.4118 13 21.4118C12.6751 21.4118 12.4117 21.6751 12.4117 22V24.3883L2.93575 18.8678V7.81757L7.38434 10.4092L12.4117 13.338V19.6471C12.4117 19.9719 12.6751 20.2353 13 20.2353C13.3249 20.2353 13.5882 19.9719 13.5882 19.6471V13.338L23.0642 7.81757V18.8678Z" fill="#5E3929"/>
<path d="M16.7417 14.5811C16.851 14.7687 17.048 14.8734 17.2505 14.8734C17.351 14.8734 17.4529 14.8476 17.546 14.7933L19.698 13.5396C19.9787 13.3761 20.0737 13.016 19.9102 12.7353C19.7467 12.4546 19.3865 12.3596 19.1058 12.5231L16.9538 13.7768C16.6731 13.9403 16.5781 14.3004 16.7417 14.5811Z" fill="#5E3929"/>
</g>
<defs>
<clipPath id="clip0_107_446">
<rect width="26" height="26" fill="white"/>
</clipPath>
</defs>
</svg>
