<svg width="24" height="24" viewBox="0 0 24 24" fill="none" xmlns="http://www.w3.org/2000/svg">
<path fill-rule="evenodd" clip-rule="evenodd" d="M17.3267 8.80313C17.6196 8.51023 17.6196 8.03536 17.3267 7.74247C17.0338 7.44957 16.5589 7.44957 16.266 7.74247L9.86917 14.1393L7.64508 11.9152C7.35218 11.6223 6.87731 11.6223 6.58442 11.9152C6.29152 12.2081 6.29152 12.683 6.58442 12.9759L9.33479 15.7263C9.33613 15.7276 9.33747 15.729 9.33882 15.7303C9.44866 15.8402 9.58408 15.9088 9.72591 15.9363C9.7927 15.9492 9.86091 15.953 9.92853 15.9477C10.1002 15.9341 10.2682 15.8617 10.3995 15.7303C10.401 15.7288 10.4026 15.7273 10.4041 15.7257L17.3267 8.80313Z" fill="#5B606D"/>
</svg>
