<svg width="195" height="86" viewBox="0 0 195 86" fill="none" xmlns="http://www.w3.org/2000/svg">
<path d="M85.3682 19.9909H53.4591V20.2637H85.3682V19.9909Z" fill="#5E3929"/>
<path d="M126.823 19.9909H94.9137V20.2637H126.823V19.9909Z" fill="#5E3929"/>
<path d="M85.9134 21.0816H52.0955V21.3543H85.9134V21.0816Z" fill="#5E3929"/>
<path d="M128.186 21.0816H94.3682V21.3543H128.186V21.0816Z" fill="#5E3929"/>
<path d="M86.7319 22.1728H50.4592V22.4455H86.7319V22.1728Z" fill="#5E3929"/>
<path d="M129.823 22.1728H93.5498V22.4455H129.823V22.1728Z" fill="#5E3929"/>
<path d="M90.3344 0.00397213C90.7782 0.292901 91.1987 0.616163 91.592 0.97079C92.0524 1.3729 92.4786 1.8126 92.8662 2.28534C93.3848 2.90455 93.7973 3.6054 94.0869 4.35943C94.2442 4.80613 94.3348 5.27363 94.3555 5.74679C94.3609 6.2618 94.2624 6.77261 94.0659 7.2487C93.8418 7.73397 93.5307 8.17413 93.1482 8.54743C93.056 8.64573 92.9564 8.73681 92.8503 8.81988C92.7475 8.90688 92.6441 8.99415 92.5402 9.0817C92.3174 9.23388 92.096 9.39479 91.8641 9.53852C90.8999 10.0968 89.8817 10.5564 88.8252 10.9103C88.5603 11.0134 88.2895 11.1015 88.0209 11.1899C87.7506 11.278 87.4779 11.3691 87.2021 11.4465C86.6548 11.6167 86.0979 11.7664 85.5355 11.8943C84.9723 12.025 84.4053 12.1368 83.8353 12.2241C83.2648 12.3032 82.6923 12.3599 82.1215 12.3918C81.0022 12.4507 79.88 12.4094 78.7681 12.2682C78.2355 12.2007 77.707 12.1038 77.1851 11.9778C76.6831 11.8613 76.1885 11.7149 75.704 11.5395C74.8096 11.2261 73.9565 10.8053 73.1635 10.2863C72.4829 9.85018 71.8826 9.29983 71.3891 8.65952C70.9872 8.16528 70.7446 7.56077 70.6934 6.92579C70.6757 6.51546 70.798 6.11129 71.0401 5.77952C71.1025 5.69553 71.1715 5.61664 71.2465 5.54361C71.297 5.49479 71.3229 5.46943 71.3229 5.46943C71.3255 5.46665 71.3287 5.46443 71.3323 5.46292C71.3358 5.46141 71.3396 5.46063 71.3435 5.46063C71.3473 5.46063 71.3511 5.46141 71.3547 5.46292C71.3582 5.46443 71.3614 5.46665 71.3641 5.46943C71.3688 5.47461 71.3716 5.48126 71.372 5.48827C71.3724 5.49527 71.3703 5.5022 71.3662 5.50788L71.3641 5.51006C71.3641 5.51006 71.3422 5.53761 71.3 5.59106C71.2373 5.66934 71.1813 5.75272 71.1325 5.84034C70.9454 6.16286 70.8718 6.53881 70.9236 6.90806C70.9623 7.16731 71.0414 7.4189 71.1579 7.6537C71.2992 7.9322 71.4754 8.19156 71.6823 8.42552C72.1905 8.98923 72.7839 9.46979 73.4409 9.8497C74.219 10.3099 75.0445 10.6849 75.9031 10.9682C76.3593 11.1198 76.8366 11.2559 77.3289 11.3759C77.8217 11.4942 78.3314 11.5902 78.8518 11.6734C79.928 11.8356 81.0162 11.9053 82.1043 11.8818C82.6607 11.8744 83.2208 11.8445 83.7846 11.7921C84.3475 11.7441 84.9121 11.6737 85.4733 11.5829C86.5944 11.4054 87.6966 11.1247 88.766 10.7442C89.0286 10.6474 89.294 10.5566 89.5492 10.4475C89.804 10.336 90.0558 10.2225 90.3047 10.1072C90.5474 9.9787 90.7863 9.8497 91.0212 9.71688C91.2527 9.57752 91.4706 9.42206 91.6918 9.27779C92.5217 8.72791 93.1815 7.95725 93.5971 7.05261C93.7545 6.63829 93.836 6.199 93.8376 5.75579C93.8265 5.33511 93.7534 4.91836 93.6208 4.51897C93.3679 3.80363 93.01 3.12989 92.5588 2.51988C92.2081 2.0392 91.8288 1.5801 91.4229 1.14506C91.0847 0.779336 90.7997 0.509609 90.6033 0.326881C90.4089 0.143063 90.3001 0.0503358 90.3001 0.0503358C90.2972 0.0479262 90.2948 0.0449605 90.293 0.041613C90.2913 0.0382655 90.2902 0.0346037 90.2899 0.0308431C90.2896 0.0270824 90.2901 0.0232987 90.2912 0.0197145C90.2924 0.0161303 90.2943 0.0128179 90.2968 0.00997213C90.3014 0.00481689 90.3077 0.00140894 90.3145 0.000317002C90.3214 -0.000774933 90.3284 0.000515212 90.3344 0.00397213Z" fill="#5E3929"/>
<path d="M90.2954 0.00710138C89.8519 0.295724 89.4317 0.618716 89.0387 0.973101C88.5778 1.37498 88.1515 1.81489 87.7643 2.28819C87.2461 2.90769 86.8334 3.60823 86.5427 4.36174C86.3856 4.80876 86.2955 5.27654 86.2752 5.74992C86.2691 6.26467 86.3675 6.77531 86.5643 7.25101C86.7884 7.73647 87.0996 8.17682 87.4823 8.55028C87.5741 8.64865 87.6735 8.73975 87.7795 8.82274C87.8818 8.91001 87.986 8.99728 88.0902 9.08483C88.313 9.23756 88.5342 9.39738 88.7657 9.54219C89.7304 10.1 90.7487 10.5595 91.8053 10.9137C92.0693 11.016 92.3398 11.1046 92.6093 11.1936C92.8801 11.2808 93.1533 11.3719 93.428 11.4499C93.9762 11.6196 94.5319 11.7686 95.0952 11.8969C95.657 12.0278 96.2245 12.1388 96.7951 12.2264C97.3656 12.306 97.9386 12.3622 98.5078 12.3952C99.6273 12.4537 100.75 12.4122 101.862 12.2714C102.394 12.2038 102.923 12.1071 103.445 11.9817C103.947 11.8648 104.442 11.7181 104.926 11.5424C105.821 11.229 106.674 10.8082 107.467 10.2892C108.147 9.8529 108.747 9.30268 109.241 8.66265C109.643 8.16861 109.886 7.56443 109.937 6.92974C109.954 6.51913 109.832 6.1148 109.59 5.78265C109.528 5.6985 109.459 5.61959 109.384 5.54674L109.307 5.47256C109.302 5.46723 109.295 5.46413 109.288 5.46388C109.28 5.46363 109.273 5.46627 109.267 5.47124C109.262 5.4762 109.258 5.48312 109.258 5.49053C109.257 5.49794 109.26 5.50528 109.264 5.51101L109.266 5.51265C109.266 5.51265 109.288 5.54101 109.331 5.59474C109.393 5.67268 109.449 5.7557 109.498 5.84292C109.685 6.1658 109.759 6.54216 109.707 6.91174C109.668 7.17094 109.589 7.42246 109.472 7.6571C109.331 7.93535 109.154 8.19458 108.948 8.42865C108.439 8.99179 107.846 9.47204 107.19 9.85201C106.411 10.3123 105.586 10.6876 104.727 10.9716C104.271 11.1232 103.794 11.2582 103.302 11.379C102.809 11.4976 102.298 11.5931 101.778 11.676C100.702 11.8386 99.6141 11.9085 98.5263 11.8849C97.9694 11.8776 97.4079 11.8476 96.8458 11.7952C96.2823 11.7466 95.7181 11.6774 95.1568 11.586C94.0359 11.4083 92.9337 11.1275 91.8644 10.7471C91.6013 10.6511 91.3364 10.5597 91.0809 10.4498C90.8264 10.3388 90.5736 10.2259 90.3252 10.1106C90.0827 9.98265 89.8439 9.85229 89.6087 9.71947C89.3772 9.58092 89.1598 9.42519 88.9389 9.28147C88.1089 8.73144 87.4489 7.96059 87.0333 7.05574C86.8757 6.64157 86.794 6.20236 86.7923 5.75919C86.8039 5.33836 86.877 4.92149 87.0093 4.52183C87.2622 3.80655 87.6201 3.13289 88.0713 2.52301C88.4216 2.04208 88.8009 1.58304 89.2073 1.14846C89.5452 0.782465 89.8304 0.512738 90.0263 0.330283C90.2213 0.146192 90.3298 0.0542832 90.3298 0.0542832C90.3357 0.0491082 90.3394 0.0418631 90.3401 0.034046C90.3408 0.0262289 90.3385 0.0184376 90.3336 0.0122832C90.3288 0.00723133 90.3224 0.00396888 90.3154 0.00302785C90.3085 0.00208681 90.3014 0.0035227 90.2954 0.00710138Z" fill="#5E3929"/>
<path d="M89.058 16.8856C89.058 16.6369 89.1317 16.3937 89.2699 16.1869C89.408 15.9801 89.6044 15.8189 89.8342 15.7238C90.0639 15.6286 90.3168 15.6037 90.5607 15.6522C90.8046 15.7007 91.0287 15.8204 91.2045 15.9963C91.3804 16.1722 91.5001 16.3962 91.5487 16.6402C91.5972 16.8841 91.5723 17.1369 91.4771 17.3667C91.3819 17.5965 91.2207 17.7928 91.0139 17.931C90.8071 18.0691 90.564 18.1429 90.3153 18.1428C89.9818 18.1428 89.662 18.0104 89.4263 17.7746C89.1905 17.5388 89.058 17.219 89.058 16.8856Z" fill="#5E3929"/>
<path d="M92.7741 17.5609C92.774 17.457 92.8048 17.3553 92.8625 17.2688C92.9202 17.1823 93.0022 17.1149 93.0983 17.075C93.1943 17.0351 93.3 17.0247 93.402 17.0449C93.504 17.0651 93.5977 17.1151 93.6713 17.1886C93.7448 17.2621 93.795 17.3558 93.8153 17.4577C93.8356 17.5597 93.8253 17.6654 93.7855 17.7615C93.7457 17.8576 93.6784 17.9397 93.592 17.9975C93.5055 18.0553 93.4039 18.0862 93.2999 18.0862C93.1606 18.0861 93.027 18.0307 92.9284 17.9323C92.8298 17.8338 92.7743 17.7003 92.7741 17.5609Z" fill="#5E3929"/>
<path d="M86.8049 17.5609C86.8047 17.4569 86.8355 17.3552 86.8932 17.2686C86.9509 17.1821 87.033 17.1146 87.1291 17.0747C87.2252 17.0349 87.331 17.0244 87.433 17.0446C87.5351 17.0649 87.6288 17.1149 87.7024 17.1885C87.776 17.262 87.8261 17.3557 87.8464 17.4578C87.8667 17.5598 87.8563 17.6656 87.8164 17.7617C87.7766 17.8578 87.7092 17.9399 87.6227 17.9977C87.5361 18.0555 87.4344 18.0863 87.3304 18.0862C87.1911 18.0862 87.0575 18.0308 86.9589 17.9323C86.8604 17.8338 86.805 17.7003 86.8049 17.5609Z" fill="#5E3929"/>
<path d="M50.8277 18.4028C50.8749 18.8119 50.9079 19.029 50.9079 19.029L51.0123 19.011C51.0123 19.011 50.996 18.7928 50.9821 18.3895C50.9748 17.8188 51.0652 17.2511 51.2493 16.7108C51.401 16.3183 51.6335 15.9621 51.9316 15.6652C52.2298 15.3683 52.587 15.1373 52.9801 14.9872C53.8929 14.607 55.0435 14.4499 56.3098 14.3907C57.6909 14.3605 59.0726 14.4077 60.4484 14.532C61.9223 14.6507 63.4782 14.8511 65.0903 15.0516C66.7029 15.255 68.3657 15.5217 70.0602 15.7612C70.9078 15.8886 71.7607 16.0166 72.6189 16.1452C73.0419 16.2139 73.4954 16.2641 73.9373 16.3247C74.1603 16.3517 74.3823 16.386 74.6054 16.4062L75.2766 16.4627C77.0573 16.5909 78.8454 16.5779 80.624 16.4237C82.3416 16.2705 84.0444 15.9826 85.7169 15.5627C87.2756 15.1774 88.8055 14.6841 90.2957 14.0864C90.3022 14.0839 90.3085 14.0812 90.3151 14.0787C90.3216 14.0812 90.3279 14.0839 90.3344 14.0864C91.8246 14.684 93.3546 15.1773 94.9132 15.5627C96.5856 15.9826 98.2884 16.2705 100.006 16.4237C101.785 16.5779 103.573 16.5909 105.353 16.4627L106.025 16.4062C106.248 16.386 106.47 16.3517 106.693 16.3247C107.135 16.2641 107.588 16.2139 108.011 16.1452C108.869 16.0167 109.722 15.8887 110.57 15.7612C112.265 15.5217 113.927 15.255 115.54 15.0516C117.152 14.8511 118.708 14.6507 120.183 14.532C121.558 14.4077 122.939 14.3605 124.32 14.3907C125.587 14.4499 126.738 14.607 127.65 14.9872C128.043 15.1373 128.4 15.3682 128.699 15.6652C128.997 15.9621 129.229 16.3183 129.381 16.7108C129.565 17.2512 129.655 17.8188 129.648 18.3895C129.634 18.7928 129.618 19.011 129.618 19.011L129.722 19.029C129.722 19.029 129.755 18.8119 129.802 18.4028C129.861 17.8068 129.81 17.205 129.651 16.6274C129.531 16.214 129.323 15.8313 129.042 15.5051C128.708 15.1251 128.304 14.8139 127.851 14.5887C127.335 14.3448 126.795 14.1589 126.238 14.0346C125.623 13.9039 125 13.8123 124.373 13.7605C122.964 13.6614 121.551 13.6541 120.141 13.7384C118.641 13.8128 117.064 13.9555 115.438 14.1344C113.81 14.3125 112.133 14.5277 110.431 14.7617C108.727 14.9864 107.006 15.2883 105.273 15.4146C103.547 15.5512 101.814 15.5517 100.088 15.4159C98.4157 15.2834 96.7551 15.0305 95.1192 14.6594C93.8717 14.3752 92.6394 14.028 91.427 13.6192C92.4148 13.1907 93.3372 12.7358 94.1889 12.2793C95.2545 11.7149 96.2889 11.0933 97.2873 10.4171C98.1797 9.81902 98.9341 9.26538 99.5414 8.79384C100.153 8.32666 100.601 7.91811 100.908 7.64429C101.212 7.36802 101.369 7.21284 101.369 7.21284L101.301 7.13211C101.301 7.13211 100.639 7.69775 99.3808 8.55957C97.6406 9.74571 95.8128 10.7978 93.9132 11.7068C92.819 12.2324 91.6108 12.75 90.3153 13.2278C89.0196 12.75 87.8114 12.2324 86.7173 11.7068C84.8174 10.7979 82.9895 9.74582 81.2493 8.55957C79.9913 7.69775 79.3293 7.13211 79.3293 7.13211L79.2612 7.21284C79.2612 7.21284 79.418 7.36802 79.7229 7.64429C80.0294 7.91811 80.4767 8.32666 81.089 8.79384C81.6963 9.26538 82.4507 9.81902 83.3431 10.4171C84.3415 11.0933 85.3759 11.7149 86.4415 12.2793C87.293 12.7358 88.2153 13.1907 89.2032 13.6195C87.991 14.0281 86.759 14.3751 85.5118 14.6594C83.8756 15.0305 82.2149 15.2833 80.5424 15.4159C78.8169 15.5517 77.0833 15.5512 75.3579 15.4146C73.6244 15.2883 71.9035 14.9864 70.1993 14.7617C68.4972 14.5277 66.8199 14.3125 65.1931 14.1344C63.5663 13.9555 61.9893 13.8128 60.4896 13.7384C59.0799 13.654 57.6662 13.6614 56.2574 13.7605C55.6304 13.8122 55.0074 13.9038 54.392 14.0346C53.8355 14.1589 53.2947 14.3448 52.7793 14.5887C52.3264 14.814 51.9217 15.1252 51.5878 15.5051C51.3071 15.8314 51.0996 16.2141 50.9793 16.6274C50.8207 17.205 50.7693 17.8067 50.8277 18.4028Z" fill="#5E3929"/>
<path d="M126.823 65.3724H94.9138V65.6451H126.823V65.3724Z" fill="#5E3929"/>
<path d="M85.3684 65.3724H53.4593V65.6451H85.3684V65.3724Z" fill="#5E3929"/>
<path d="M128.187 64.2817H94.3683V64.5545H128.187V64.2817Z" fill="#5E3929"/>
<path d="M85.9135 64.2817H52.0956V64.5545H85.9135V64.2817Z" fill="#5E3929"/>
<path d="M129.823 63.1906H93.5499V63.4633H129.823V63.1906Z" fill="#5E3929"/>
<path d="M86.7331 63.1906H50.4603V63.4633H86.7331V63.1906Z" fill="#5E3929"/>
<path d="M89.9476 85.6322C89.5038 85.3433 89.0834 85.0201 88.6901 84.6654C88.2297 84.2633 87.8035 83.8236 87.4159 83.3509C86.8973 82.7317 86.4848 82.0308 86.1952 81.2768C86.0378 80.8301 85.9473 80.3626 85.9265 79.8894C85.9212 79.3744 86.0197 78.8636 86.2162 78.3875C86.4403 77.9022 86.7513 77.4621 87.1339 77.0888C87.2261 76.9905 87.3256 76.8994 87.4317 76.8163C87.5345 76.7293 87.6379 76.6421 87.7418 76.5545C87.9646 76.4023 88.1861 76.2414 88.4179 76.0977C89.3822 75.5394 90.4004 75.0798 91.4569 74.7259C91.7217 74.6228 91.9925 74.5347 92.2612 74.4463C92.5314 74.3582 92.8042 74.2671 93.0799 74.1897C93.6273 74.0195 94.1842 73.8698 94.7465 73.7419C95.3097 73.6112 95.8767 73.4994 96.4467 73.4121C97.0173 73.3331 97.5897 73.2763 98.1605 73.2444C99.2798 73.1855 100.402 73.2268 101.514 73.368C102.047 73.4355 102.575 73.5324 103.097 73.6584C103.599 73.7749 104.094 73.9213 104.578 74.0967C105.472 74.4101 106.326 74.8309 107.119 75.3499C107.799 75.786 108.399 76.3364 108.893 76.9767C109.295 77.4709 109.537 78.0754 109.589 78.7104C109.606 79.1207 109.484 79.5249 109.242 79.8567C109.18 79.9407 109.111 80.0196 109.036 80.0926C108.985 80.1414 108.959 80.1668 108.959 80.1668C108.957 80.1696 108.953 80.1718 108.95 80.1733C108.946 80.1748 108.942 80.1756 108.939 80.1756C108.935 80.1756 108.931 80.1748 108.927 80.1733C108.924 80.1718 108.921 80.1696 108.918 80.1668C108.913 80.1616 108.91 80.1549 108.91 80.1479C108.91 80.1409 108.912 80.134 108.916 80.1283L108.918 80.1261C108.918 80.1261 108.94 80.0986 108.982 80.0451C109.045 79.9669 109.101 79.8835 109.15 79.7959C109.337 79.4734 109.41 79.0974 109.358 78.7281C109.32 78.4689 109.241 78.2173 109.124 77.9825C108.983 77.704 108.807 77.4446 108.6 77.2107C108.092 76.647 107.498 76.1664 106.841 75.7865C106.063 75.3263 105.238 74.9513 104.379 74.6681C103.923 74.5164 103.445 74.3803 102.953 74.2603C102.46 74.142 101.951 74.046 101.43 73.9628C100.354 73.8006 99.2659 73.7309 98.1777 73.7544C97.6214 73.7618 97.0613 73.7917 96.4974 73.8441C95.9345 73.8921 95.37 73.9625 94.8087 74.0533C93.6877 74.2308 92.5854 74.5115 91.5161 74.892C91.2534 74.9888 90.9881 75.0796 90.7328 75.1887C90.4781 75.3002 90.2263 75.4137 89.9774 75.5291C89.7346 75.6575 89.4957 75.7865 89.2609 75.9193C89.0294 76.0587 88.8114 76.2141 88.5903 76.3584C87.7604 76.9083 87.1005 77.679 86.685 78.5836C86.5276 78.9979 86.4461 79.4372 86.4444 79.8804C86.4556 80.3011 86.5286 80.7178 86.6613 81.1172C86.9142 81.8326 87.2721 82.5063 87.7233 83.1163C88.0739 83.597 88.4533 84.0561 88.8592 84.4911C89.1974 84.8569 89.4824 85.1266 89.6787 85.3093C89.8732 85.4931 89.982 85.5859 89.982 85.5859C89.9849 85.5883 89.9873 85.5913 89.989 85.5946C89.9908 85.5979 89.9918 85.6016 89.9921 85.6054C89.9924 85.6091 89.992 85.6129 89.9908 85.6165C89.9896 85.6201 89.9877 85.6234 89.9853 85.6262C89.9806 85.6314 89.9744 85.6348 89.9675 85.6359C89.9607 85.637 89.9536 85.6357 89.9476 85.6322Z" fill="#5E3929"/>
<path d="M89.9866 85.6291C90.4302 85.3405 90.8504 85.0175 91.2433 84.6631C91.7043 84.2612 92.1306 83.8213 92.5178 83.348C93.036 82.7285 93.4487 82.028 93.7393 81.2745C93.8964 80.8275 93.9866 80.3597 94.0069 79.8863C94.0129 79.3715 93.9146 78.8609 93.7178 78.3852C93.4936 77.8997 93.1825 77.4594 92.7998 77.0859C92.7079 76.9876 92.6085 76.8965 92.5025 76.8135C92.4002 76.7262 92.2961 76.6389 92.1919 76.5514C91.9691 76.3987 91.7479 76.2388 91.5163 76.094C90.5516 75.5362 89.5333 75.0768 88.4768 74.7225C88.2128 74.6202 87.9423 74.5316 87.6728 74.4427C87.402 74.3554 87.1287 74.2643 86.8541 74.1863C86.3059 74.0167 85.7502 73.8677 85.1869 73.7393C84.6251 73.6084 84.0575 73.4974 83.487 73.4098C82.9164 73.3302 82.3434 73.274 81.7742 73.241C80.6548 73.1825 79.5324 73.224 78.4203 73.3648C77.8876 73.4324 77.3591 73.5291 76.8371 73.6545C76.335 73.7714 75.8403 73.9182 75.3556 74.0938C74.4613 74.4072 73.6083 74.828 72.8154 75.347C72.1349 75.7833 71.5346 76.3335 71.0408 76.9736C70.639 77.4676 70.3964 78.0718 70.3448 78.7065C70.3276 79.1171 70.45 79.5214 70.692 79.8536C70.7541 79.9377 70.8231 80.0166 70.8982 80.0895L70.9748 80.1637C70.98 80.169 70.987 80.1721 70.9945 80.1723C71.0019 80.1726 71.0091 80.1699 71.0147 80.165C71.0202 80.16 71.0236 80.1531 71.0241 80.1457C71.0247 80.1383 71.0224 80.1309 71.0176 80.1252L71.016 80.1236C71.016 80.1236 70.9939 80.0952 70.9513 80.0415C70.8888 79.9635 70.8329 79.8805 70.7842 79.7933C70.5969 79.4704 70.5235 79.0941 70.5755 78.7245C70.6141 78.4653 70.6931 78.2137 70.8098 77.9791C70.9515 77.7009 71.1278 77.4416 71.3345 77.2076C71.8428 76.6444 72.4359 76.1642 73.0925 75.7842C73.8708 75.3239 74.6963 74.9486 75.5547 74.6647C76.011 74.513 76.4885 74.378 76.9805 74.2572C77.4733 74.1386 77.9836 74.0431 78.5045 73.9602C79.5803 73.7976 80.668 73.7277 81.7557 73.7513C82.3126 73.7587 82.8742 73.7887 83.4363 73.841C83.9997 73.8896 84.564 73.9588 85.1252 74.0502C86.2462 74.2279 87.3483 74.5087 88.4176 74.8891C88.6808 74.9851 88.9456 75.0765 89.2012 75.1864C89.4556 75.2974 89.7084 75.4103 89.9569 75.5257C90.1993 75.6536 90.4382 75.7839 90.6733 75.9167C90.9049 76.0553 91.1222 76.211 91.3432 76.3547C92.1732 76.9048 92.8331 77.6756 93.2487 78.5805C93.4064 78.9946 93.4881 79.4339 93.4898 79.877C93.4782 80.2978 93.405 80.7147 93.2727 81.1144C93.0199 81.8297 92.6619 82.5033 92.2107 83.1132C91.8605 83.5941 91.4811 84.0532 91.0748 84.4877C90.7369 84.8537 90.4516 85.1235 90.2558 85.3059C90.0608 85.49 89.9523 85.5819 89.9523 85.5819C89.9464 85.5871 89.9427 85.5943 89.942 85.6022C89.9412 85.61 89.9436 85.6178 89.9484 85.6239C89.9533 85.629 89.9597 85.6322 89.9666 85.6332C89.9736 85.6341 89.9806 85.6327 89.9866 85.6291Z" fill="#5E3929"/>
<path d="M91.224 68.7507C91.2241 68.9994 91.1503 69.2425 91.0122 69.4493C90.874 69.6561 90.6777 69.8173 90.4479 69.9125C90.2181 70.0076 89.9653 70.0326 89.7214 69.984C89.4774 69.9355 89.2534 69.8158 89.0775 69.6399C88.9017 69.4641 88.7819 69.24 88.7334 68.9961C88.6849 68.7521 88.7098 68.4993 88.805 68.2695C88.9002 68.0398 89.0613 67.8434 89.2681 67.7052C89.4749 67.5671 89.7181 67.4934 89.9668 67.4934C90.3002 67.4934 90.62 67.6259 90.8558 67.8616C91.0916 68.0974 91.224 68.4172 91.224 68.7507Z" fill="#5E3929"/>
<path d="M87.508 68.0752C87.5081 68.1792 87.4773 68.2809 87.4196 68.3674C87.3619 68.4539 87.2798 68.5213 87.1838 68.5612C87.0877 68.601 86.982 68.6115 86.88 68.5913C86.778 68.5711 86.6843 68.521 86.6108 68.4475C86.5372 68.3741 86.4871 68.2804 86.4668 68.1784C86.4464 68.0765 86.4568 67.9707 86.4965 67.8747C86.5363 67.7786 86.6037 67.6964 86.6901 67.6386C86.7765 67.5808 86.8782 67.55 86.9822 67.55C87.1215 67.5501 87.2551 67.6054 87.3536 67.7039C87.4522 67.8024 87.5077 67.9359 87.508 68.0752Z" fill="#5E3929"/>
<path d="M93.4772 68.0752C93.4773 68.1793 93.4465 68.281 93.3888 68.3675C93.3311 68.4541 93.249 68.5216 93.1529 68.5614C93.0568 68.6013 92.9511 68.6118 92.849 68.5915C92.747 68.5713 92.6532 68.5212 92.5797 68.4477C92.5061 68.3741 92.456 68.2804 92.4357 68.1784C92.4154 68.0764 92.4258 67.9706 92.4656 67.8745C92.5054 67.7784 92.5729 67.6962 92.6594 67.6385C92.7459 67.5807 92.8476 67.5499 92.9516 67.55C93.091 67.55 93.2246 67.6053 93.3231 67.7038C93.4217 67.8023 93.4771 67.9359 93.4772 68.0752Z" fill="#5E3929"/>
<path d="M129.454 67.2334C129.407 66.8243 129.374 66.6072 129.374 66.6072L129.27 66.6252C129.27 66.6252 129.286 66.8434 129.3 67.2467C129.307 67.8174 129.217 68.3851 129.033 68.9254C128.881 69.3178 128.649 69.6741 128.35 69.971C128.052 70.268 127.695 70.4989 127.302 70.649C126.389 71.0292 125.239 71.1863 123.972 71.2454C122.591 71.2757 121.209 71.2285 119.834 71.1042C118.36 70.9855 116.804 70.7851 115.192 70.5846C113.579 70.3812 111.916 70.1144 110.222 69.875C109.374 69.7476 108.521 69.6196 107.663 69.491C107.24 69.4223 106.787 69.3721 106.345 69.3115C106.122 69.2845 105.9 69.2502 105.677 69.23L105.005 69.1735C103.225 69.0453 101.437 69.0583 99.6581 69.2125C97.9405 69.3657 96.2376 69.6535 94.5651 70.0735C93.0065 70.4588 91.4765 70.9521 89.9863 71.5498C89.9798 71.5523 89.9735 71.555 89.967 71.5575C89.9604 71.555 89.9541 71.5523 89.9476 71.5498C88.4574 70.9522 86.9274 70.4589 85.3688 70.0735C83.6964 69.6536 81.9936 69.3657 80.2761 69.2125C78.4975 69.0583 76.7095 69.0453 74.9288 69.1735L74.2573 69.23C74.034 69.2502 73.812 69.2845 73.5891 69.3115C73.1468 69.3721 72.6938 69.4223 72.2711 69.491C71.4133 69.6195 70.5602 69.7474 69.7118 69.875C68.0171 70.1144 66.3548 70.3812 64.7424 70.5846C63.1301 70.7851 61.5744 70.9855 60.0995 71.1042C58.724 71.2285 57.3427 71.2757 55.962 71.2454C54.6954 71.1863 53.5445 71.0292 52.632 70.649C52.2388 70.4989 51.8816 70.268 51.5834 69.971C51.2852 69.6741 51.0527 69.3179 50.901 68.9254C50.7172 68.385 50.6268 67.8174 50.6337 67.2467C50.6479 66.8434 50.6637 66.6252 50.6637 66.6252L50.5601 66.6072C50.5601 66.6072 50.5268 66.8243 50.4799 67.2334C50.4213 67.8294 50.4724 68.4312 50.6307 69.0088C50.7511 69.4222 50.9587 69.8049 51.2397 70.1311C51.5737 70.5111 51.9785 70.8223 52.4315 71.0475C52.9467 71.2914 53.4873 71.4773 54.0436 71.6016C54.6589 71.7323 55.2819 71.8239 55.9088 71.8757C57.3176 71.9748 58.7314 71.9821 60.1412 71.8978C61.6407 71.8234 63.2181 71.6807 64.8444 71.5018C66.4718 71.3237 68.1491 71.1085 69.8511 70.8745C71.5554 70.6498 73.2761 70.3479 75.0092 70.2216C76.7348 70.085 78.4684 70.0845 80.1941 70.2203C81.8663 70.3528 83.5269 70.6057 85.1629 70.9768C86.4104 71.261 87.6427 71.6082 88.8551 72.017C87.8672 72.4455 86.9449 72.9004 86.0931 73.3569C85.0275 73.9213 83.9932 74.5429 82.9947 75.2191C82.1023 75.8172 81.348 76.3708 80.7406 76.8424C80.1286 77.3095 79.6813 77.7181 79.3745 77.9919C79.0696 78.2682 78.9128 78.4234 78.9128 78.4234L78.981 78.5041C78.981 78.5041 79.6431 77.9385 80.9012 77.0766C82.6414 75.8905 84.4692 74.8384 86.3689 73.9294C87.4631 73.4038 88.6712 72.8862 89.9667 72.4084C91.2624 72.8862 92.4706 73.4038 93.5648 73.9294C95.4646 74.8382 97.2925 75.8904 99.0327 77.0766C100.291 77.9385 100.953 78.5041 100.953 78.5041L101.021 78.4234C101.021 78.4234 100.864 78.2682 100.559 77.9919C100.253 77.7181 99.8053 77.3095 99.1931 76.8424C98.5857 76.3708 97.8313 75.8172 96.939 75.2191C95.9405 74.5429 94.9062 73.9213 93.8405 73.3569C92.9891 72.9004 92.0667 72.4454 91.0789 72.0167C92.291 71.6081 93.5231 71.2611 94.7702 70.9768C96.4064 70.6057 98.0671 70.3529 99.7396 70.2203C101.465 70.0845 103.199 70.085 104.924 70.2216C106.658 70.3479 108.379 70.6498 110.083 70.8745C111.785 71.1085 113.462 71.3237 115.089 71.5018C116.716 71.6807 118.293 71.8234 119.792 71.8978C121.202 71.9821 122.616 71.9748 124.025 71.8757C124.652 71.824 125.275 71.7324 125.89 71.6016C126.446 71.4773 126.987 71.2914 127.503 71.0475C127.956 70.8222 128.36 70.511 128.694 70.1311C128.975 69.8048 129.182 69.4221 129.303 69.0088C129.461 68.4312 129.513 67.8295 129.454 67.2334Z" fill="#5E3929"/>
<path d="M4.87506 31.6364L6.73527 30.9308L6.5856 30.0327H0.898036L0.748364 30.9094L2.60858 31.6364V43.3964L0.748364 44.0806L0.898036 45H6.5856L6.73527 44.0806L4.87506 43.3964V31.6364ZM9.96393 45H14.0479L14.2189 44.102L12.3587 43.375L8.4672 37.5805L6.90633 36.8963L11.1827 32.5344C11.8028 31.9143 12.4228 31.5081 13.2353 31.1873L13.9196 30.9094L13.7699 30.0327H9.04451L8.89484 30.9094L10.7551 31.6364L5.77309 36.7252V37.6233L10.1136 44.102L9.96393 45ZM15.6229 39.7615H21.9947L22.1658 38.5855H15.794L15.6229 39.7615ZM28.2435 42.2417L35.8769 34.5443V43.3964L34.0594 44.102L34.2091 45H39.8325L39.9822 44.102L38.1433 43.3964V31.6364L40.0035 30.9094L39.8539 30.0327H34.1877L34.0166 30.9094L35.8769 31.6364V32.5772L28.2435 40.2746V31.6364L30.1251 30.9094L29.9541 30.0327H24.2879L24.1169 30.9094L25.9771 31.6364V43.3964L24.1596 44.102L24.3093 45H29.9113L30.0824 44.102L28.2435 43.3964V42.2417ZM57.1987 30.9308L57.049 30.0327H51.3615L51.2118 30.9308L53.072 31.6364V36.8321H45.8663V31.6364L47.7266 30.9308L47.5769 30.0327H41.8893L41.7396 30.9308L43.5999 31.6364V43.3964L41.761 44.102L41.9321 45H47.5341L47.6838 44.102L45.8663 43.3964V37.7302H53.072V43.3964L51.2118 44.102L51.3615 45H57.0063L57.1559 44.102L55.3385 43.3964V31.6364L57.1987 30.9308ZM73.8067 45H77.8479L77.9975 44.102L76.1801 43.3964L72.481 37.495L71.1981 36.8321L75.1324 32.5985C75.7524 31.9357 76.4153 31.4867 77.2706 31.166L77.8906 30.9094L77.741 30.0327H72.8018L72.6521 30.9094L74.5123 31.6364L69.8724 36.5969V37.495L73.9778 44.102L73.8067 45ZM62.4102 44.102L66.4941 37.495V36.5969L61.8756 31.6364L63.6503 30.9094L63.5007 30.0327H58.647L58.4759 30.9094L59.096 31.166C59.9513 31.4867 60.6355 31.9143 61.2556 32.5985L65.1898 36.8321L63.8855 37.495L60.2079 43.3964L58.369 44.102L58.5187 45H62.5599L62.4102 44.102ZM69.2096 31.6364L71.0698 30.9094L70.8988 30.0327H65.4678L65.3181 30.9094L67.1783 31.6364V43.3964L65.3395 44.102L65.4892 45H70.8774L71.0484 44.102L69.2096 43.3964V31.6364ZM83.3268 42.2417L90.9601 34.5443V43.3964L89.1426 44.102L89.2923 45H94.9157L95.0654 44.102L93.2266 43.3964V31.6364L95.0868 30.9094L94.9371 30.0327H89.2709L89.0999 30.9094L90.9601 31.6364V32.5772L83.3268 40.2746V31.6364L85.2084 30.9094L85.0373 30.0327H79.3711L79.2001 30.9094L81.0603 31.6364V43.3964L79.2429 44.102L79.3925 45H84.9946L85.1656 44.102L83.3268 43.3964V42.2417ZM112.282 30.9308L112.132 30.0327H106.445L106.295 30.9308L108.155 31.6364V36.8321H100.95V31.6364L102.81 30.9308L102.66 30.0327H96.9726L96.8229 30.9308L98.6831 31.6364V43.3964L96.8443 44.102L97.0153 45H102.617L102.767 44.102L100.95 43.3964V37.7302H108.155V43.3964L106.295 44.102L106.445 45H112.09L112.239 44.102L110.422 43.3964V31.6364L112.282 30.9308ZM118.135 42.2417L125.768 34.5443V43.3964L123.951 44.102L124.1 45H129.724L129.874 44.102L128.035 43.3964V31.6364L129.895 30.9094L129.745 30.0327H124.079L123.908 30.9094L125.768 31.6364V32.5772L118.135 40.2746V31.6364L120.016 30.9094L119.845 30.0327H114.179L114.008 30.9094L115.868 31.6364V43.3964L114.051 44.102L114.201 45H119.803L119.974 44.102L118.135 43.3964V42.2417ZM135.672 30.9308H137.618C139.927 30.9308 140.825 32.4916 140.825 34.6298C140.825 36.4045 139.585 38.1578 137.575 38.1578H136.57V39.0559H137.511C140.44 39.0559 143.027 37.9654 143.027 34.6298C143.027 31.8502 141.424 30.0327 138.323 30.0327H131.695L131.524 30.9308L133.406 31.6364V43.3964L131.567 44.102L131.717 45H137.361L137.532 44.102L135.672 43.3964V30.9308ZM148.662 42.2417L156.296 34.5443V43.3964L154.478 44.102L154.628 45H160.251L160.401 44.102L158.562 43.3964V31.6364L160.422 30.9094L160.273 30.0327H154.607L154.436 30.9094L156.296 31.6364V32.5772L148.662 40.2746V31.6364L150.544 30.9094L150.373 30.0327H144.707L144.536 30.9094L146.396 31.6364V43.3964L144.579 44.102L144.728 45H150.33L150.501 44.102L148.662 43.3964V42.2417ZM177.618 30.9308L177.468 30.0327H171.78L171.631 30.9308L173.491 31.6364V36.8321H166.285V31.6364L168.145 30.9308L167.996 30.0327H162.308L162.159 30.9308L164.019 31.6364V43.3964L162.18 44.102L162.351 45H167.953L168.103 44.102L166.285 43.3964V37.7302H173.491V43.3964L171.631 44.102L171.78 45H177.425L177.575 44.102L175.757 43.3964V31.6364L177.618 30.9308ZM183.171 30.9094H187.255L188.453 33.967L189.351 33.8173V30.0327H179.387L179.216 30.9094L181.076 31.6364V43.3964L179.258 44.102L179.408 45H184.839L184.989 44.102L183.171 43.3964V30.9094Z" fill="#5E3929"/>
<path d="M31.5164 58H30.4044V50.9236H33.9122V58H32.78V51.9345H31.5164V58ZM37.8523 53.9058H39.3788V54.9167H37.8523V56.9891H39.773V58H36.7403V50.9236H39.773V51.9345H37.8523V53.9058ZM44.092 50.9236C44.6514 50.9236 45.0658 51.0719 45.3354 51.3684C45.6117 51.665 45.7499 52.0997 45.7499 52.6725V53.5924C45.7499 54.1653 45.6117 54.6 45.3354 54.8965C45.0658 55.193 44.6514 55.3413 44.092 55.3413H43.5663V58H42.4543V50.9236H44.092ZM43.5663 51.9345V54.3304H44.092C44.2672 54.3304 44.402 54.2832 44.4964 54.1889C44.5907 54.0945 44.6379 53.9193 44.6379 53.6632V52.6017C44.6379 52.3456 44.5907 52.1704 44.4964 52.0761C44.402 51.9817 44.2672 51.9345 44.092 51.9345H43.5663ZM49.3889 53.9058H50.9154V54.9167H49.3889V56.9891H51.3096V58H48.2769V50.9236H51.3096V51.9345H49.3889V53.9058ZM55.1029 58H53.9909V50.9236H57.4988V58H56.3666V51.9345H55.1029V58ZM63.4506 51.9345H62.1566V56.241C62.1566 56.5982 62.1128 56.8914 62.0252 57.1205C61.9376 57.3496 61.8197 57.5316 61.6714 57.6664C61.5231 57.7944 61.3513 57.8854 61.1558 57.9393C60.9671 57.9933 60.7683 58.0202 60.5594 58.0202C60.4583 58.0202 60.3673 58.0202 60.2864 58.0202C60.2056 58.0202 60.118 58.0135 60.0236 58V56.9891C60.0843 56.9958 60.1483 56.9992 60.2157 56.9992C60.2831 56.9992 60.3471 56.9992 60.4078 56.9992C60.583 56.9992 60.7312 56.9554 60.8526 56.8678C60.9806 56.7802 61.0446 56.5982 61.0446 56.3219V50.9236H64.5626V58H63.4506V51.9345ZM68.5054 53.9058H70.0318V54.9167H68.5054V56.9891H70.4261V58H67.3934V50.9236H70.4261V51.9345H68.5054V53.9058ZM72.8041 50.9236H76.2412V51.9345H75.0786V58H73.9666V51.9345H72.8041V50.9236ZM79.884 58H78.772V50.9236H79.884V53.9564H81.1477V50.9236H82.2799V58H81.1477V54.9673H79.884V58ZM86.7456 56.9891C86.9209 56.9891 87.0557 56.9419 87.15 56.8476C87.2444 56.7532 87.2915 56.578 87.2915 56.3219V55.2604C87.2915 55.0043 87.2444 54.8291 87.15 54.7348C87.0557 54.6404 86.9209 54.5932 86.7456 54.5932H86.22V56.9891H86.7456ZM85.108 58V50.9236H86.22V53.5823H86.7456C87.305 53.5823 87.7195 53.7306 87.9891 54.0271C88.2654 54.3237 88.4035 54.7584 88.4035 55.3312V56.2511C88.4035 56.824 88.2654 57.2587 87.9891 57.5552C87.7195 57.8517 87.305 58 86.7456 58H85.108ZM88.9494 50.9236H90.0614V58H88.9494V50.9236ZM94.0071 53.9058H95.5336V54.9167H94.0071V56.9891H95.9279V58H92.8951V50.9236H95.9279V51.9345H94.0071V53.9058ZM104.566 55.9479L105.324 50.9236H106.871V58H105.82V52.9252L105.051 58H104L103.171 52.996V58H102.201V50.9236H103.747L104.566 55.9479ZM113.29 58H112.168L111.976 56.7161H110.611L110.419 58H109.398L110.53 50.9236H112.158L113.29 58ZM110.753 55.7558H111.824L111.289 52.1772L110.753 55.7558ZM115.517 50.9236H118.954V51.9345H117.792V58H116.68V51.9345H115.517V50.9236ZM122.597 53.9058H124.123V54.9167H122.597V56.9891H124.518V58H121.485V50.9236H124.518V51.9345H122.597V53.9058ZM128.837 50.9236C129.396 50.9236 129.81 51.0719 130.08 51.3684C130.356 51.665 130.494 52.0997 130.494 52.6725V53.5924C130.494 54.1653 130.356 54.6 130.08 54.8965C129.81 55.193 129.396 55.3413 128.837 55.3413H128.311V58H127.199V50.9236H128.837ZM128.311 51.9345V54.3304H128.837C129.012 54.3304 129.147 54.2832 129.241 54.1889C129.335 54.0945 129.382 53.9193 129.382 53.6632V52.6017C129.382 52.3456 129.335 52.1704 129.241 52.0761C129.147 51.9817 129.012 51.9345 128.837 51.9345H128.311ZM134.164 58H133.022V50.9236H134.012V55.1593L135.155 50.9236H136.55V58H135.549V52.8747L134.164 58ZM142.966 58H141.844L141.652 56.7161H140.287L140.095 58H139.074L140.206 50.9236H141.834L142.966 58ZM140.429 55.7558H141.5L140.964 52.1772L140.429 55.7558ZM148.62 51.9345H147.326V56.241C147.326 56.5982 147.282 56.8914 147.194 57.1205C147.107 57.3496 146.989 57.5316 146.84 57.6664C146.692 57.7944 146.52 57.8854 146.325 57.9393C146.136 57.9933 145.937 58.0202 145.728 58.0202C145.627 58.0202 145.536 58.0202 145.456 58.0202C145.375 58.0202 145.287 58.0135 145.193 58V56.9891C145.253 56.9958 145.317 56.9992 145.385 56.9992C145.452 56.9992 145.516 56.9992 145.577 56.9992C145.752 56.9992 145.9 56.9554 146.022 56.8678C146.15 56.7802 146.214 56.5982 146.214 56.3219V50.9236H149.732V58H148.62V51.9345ZM154.2 56.9891C154.375 56.9891 154.51 56.9419 154.604 56.8476C154.699 56.7532 154.746 56.578 154.746 56.3219V55.2604C154.746 55.0043 154.699 54.8291 154.604 54.7348C154.51 54.6404 154.375 54.5932 154.2 54.5932H153.674V56.9891H154.2ZM152.562 58V50.9236H153.674V53.5823H154.2C154.76 53.5823 155.174 53.7306 155.444 54.0271C155.72 54.3237 155.858 54.7584 155.858 55.3312V56.2511C155.858 56.824 155.72 57.2587 155.444 57.5552C155.174 57.8517 154.76 58 154.2 58H152.562ZM156.404 50.9236H157.516V58H156.404V50.9236Z" fill="#5E3929"/>
</svg>
