<svg width="375" height="376" viewBox="0 0 375 376" fill="none" xmlns="http://www.w3.org/2000/svg">
<path d="M12.7326 119.034H91.5326C96.0326 119.034 100.233 121.534 102.533 125.534L159.433 227.034C164.433 235.934 177.033 235.634 181.633 226.534L276.733 39.434C278.933 35.134 283.233 32.434 287.933 32.434H361.533C371.033 32.434 377.133 42.834 372.633 51.434L217.033 350.434C199.933 382.434 155.633 383.934 136.433 353.234L2.1326 138.934C-3.2674 130.334 2.8326 119.034 12.7326 119.034V119.034Z" fill="#ECF2F9"/>
<path d="M60.1334 230.531C60.6638 230.531 61.1725 230.32 61.5476 229.945C61.9227 229.57 62.1334 229.061 62.1334 228.531C62.1334 228.001 61.9227 227.492 61.5476 227.117C61.1725 226.742 60.6638 226.531 60.1334 226.531V230.531ZM39.9334 226.531C39.403 226.531 38.8943 226.742 38.5192 227.117C38.1441 227.492 37.9334 228.001 37.9334 228.531C37.9334 229.061 38.1441 229.57 38.5192 229.945C38.8943 230.32 39.403 230.531 39.9334 230.531V226.531ZM53.4014 238.231C53.5327 238.458 53.7074 238.658 53.9157 238.818C54.124 238.978 54.3618 239.095 54.6154 239.163C54.8691 239.231 55.1336 239.248 55.394 239.214C55.6544 239.18 55.9054 239.095 56.1329 238.964C56.3603 238.832 56.5597 238.657 56.7196 238.449C56.8795 238.241 56.9968 238.003 57.0649 237.749C57.1329 237.496 57.1503 237.231 57.1161 236.971C57.0818 236.711 56.9967 236.459 56.8654 236.232L53.4014 238.231ZM46.7654 218.732C46.6366 218.5 46.4629 218.296 46.2544 218.131C46.0459 217.967 45.8067 217.846 45.5508 217.775C45.295 217.704 45.0275 217.684 44.7641 217.718C44.5007 217.751 44.2466 217.837 44.0166 217.97C43.7866 218.102 43.5854 218.279 43.4246 218.491C43.2638 218.702 43.1467 218.943 43.0801 219.2C43.0136 219.457 42.9988 219.725 43.0368 219.988C43.0748 220.251 43.1648 220.503 43.3014 220.731L46.7654 218.732ZM43.3014 236.232C43.1648 236.46 43.0748 236.712 43.0368 236.975C42.9988 237.238 43.0136 237.506 43.0801 237.763C43.1467 238.02 43.2638 238.261 43.4246 238.472C43.5854 238.684 43.7866 238.861 44.0166 238.993C44.2466 239.126 44.5007 239.212 44.7641 239.245C45.0275 239.279 45.295 239.259 45.5508 239.188C45.8067 239.117 46.0459 238.996 46.2544 238.832C46.4629 238.667 46.6366 238.463 46.7654 238.231L43.3014 236.232ZM56.8654 220.731C57.002 220.503 57.092 220.251 57.13 219.988C57.168 219.725 57.1532 219.457 57.0867 219.2C57.0201 218.943 56.903 218.702 56.7422 218.491C56.5814 218.279 56.3802 218.102 56.1502 217.97C55.9202 217.837 55.6661 217.751 55.4027 217.718C55.1393 217.684 54.8718 217.704 54.616 217.775C54.3601 217.846 54.1209 217.967 53.9124 218.131C53.7039 218.296 53.5302 218.5 53.4014 218.732L56.8654 220.731ZM92.4334 230.531C92.9638 230.531 93.4725 230.32 93.8476 229.945C94.2227 229.57 94.4334 229.061 94.4334 228.531C94.4334 228.001 94.2227 227.492 93.8476 227.117C93.4725 226.742 92.9638 226.531 92.4334 226.531V230.531ZM72.3334 226.531C71.803 226.531 71.2943 226.742 70.9192 227.117C70.5441 227.492 70.3334 228.001 70.3334 228.531C70.3334 229.061 70.5441 229.57 70.9192 229.945C71.2943 230.32 71.803 230.531 72.3334 230.531V226.531ZM85.7014 238.231C85.8326 238.458 86.0074 238.658 86.2157 238.818C86.424 238.978 86.6618 239.095 86.9154 239.163C87.1691 239.231 87.4336 239.248 87.694 239.214C87.9544 239.18 88.2054 239.095 88.4329 238.964C88.6603 238.832 88.8597 238.657 89.0196 238.449C89.1795 238.241 89.2968 238.003 89.3649 237.749C89.4329 237.496 89.4503 237.231 89.416 236.971C89.3818 236.711 89.2967 236.459 89.1654 236.232L85.7014 238.231ZM79.0654 218.732C78.9366 218.5 78.7629 218.296 78.5544 218.131C78.3459 217.967 78.1067 217.846 77.8508 217.775C77.595 217.704 77.3275 217.684 77.0641 217.718C76.8007 217.751 76.5466 217.837 76.3166 217.97C76.0866 218.102 75.8854 218.279 75.7246 218.491C75.5638 218.702 75.4467 218.943 75.3801 219.2C75.3136 219.457 75.2988 219.725 75.3368 219.988C75.3748 220.251 75.4648 220.503 75.6014 220.731L79.0654 218.732ZM75.6014 236.232C75.4648 236.46 75.3748 236.712 75.3368 236.975C75.2988 237.238 75.3136 237.506 75.3801 237.763C75.4467 238.02 75.5638 238.261 75.7246 238.472C75.8854 238.684 76.0866 238.861 76.3166 238.993C76.5466 239.126 76.8007 239.212 77.0641 239.245C77.3275 239.279 77.595 239.259 77.8508 239.188C78.1067 239.117 78.3459 238.996 78.5544 238.832C78.7629 238.667 78.9366 238.463 79.0654 238.231L75.6014 236.232ZM89.1654 220.731C89.302 220.503 89.392 220.251 89.43 219.988C89.4679 219.725 89.4532 219.457 89.3867 219.2C89.3201 218.943 89.203 218.702 89.0422 218.491C88.8814 218.279 88.6802 218.102 88.4502 217.97C88.2202 217.837 87.9661 217.751 87.7027 217.718C87.4393 217.684 87.1718 217.704 86.916 217.775C86.6601 217.846 86.4209 217.967 86.2124 218.131C86.0039 218.296 85.8301 218.5 85.7014 218.732L89.1654 220.731ZM194.733 249.431H40.7334V253.431H194.733V249.431ZM40.7334 249.431C32.7384 249.431 26.2334 242.927 26.2334 234.931H22.2334C22.2334 245.136 30.5294 253.431 40.7334 253.431V249.431ZM26.2334 234.931V222.031H22.2334V234.931H26.2334ZM26.2334 222.031C26.2334 214.036 32.7384 207.531 40.7334 207.531V203.531C30.5294 203.531 22.2334 211.827 22.2334 222.031H26.2334ZM40.7334 207.531H194.733V203.531H40.7334V207.531ZM194.733 207.531C202.729 207.531 209.233 214.036 209.233 222.031H213.233C213.233 211.827 204.938 203.531 194.733 203.531V207.531ZM209.233 222.031V234.931H213.233V222.031H209.233ZM209.233 234.931C209.233 242.927 202.729 249.431 194.733 249.431V253.431C204.938 253.431 213.233 245.136 213.233 234.931H209.233ZM60.1334 226.531H39.9334V230.531H60.1334V226.531ZM39.9334 230.531H60.1334V226.531H39.9334V230.531ZM56.8654 236.232L46.7654 218.732L43.3014 220.731L53.4014 238.231L56.8654 236.232ZM43.3014 220.731L53.4014 238.231L56.8654 236.232L46.7654 218.732L43.3014 220.731ZM46.7654 238.231L56.8654 220.731L53.4014 218.732L43.3014 236.232L46.7654 238.231ZM53.4014 218.732L43.3014 236.232L46.7654 238.231L56.8654 220.731L53.4014 218.732ZM92.4334 226.531H72.3334V230.531H92.4334V226.531V226.531ZM72.3334 230.531H92.4334V226.531H72.3334V230.531ZM89.1654 236.232L79.0654 218.732L75.6014 220.731L85.7014 238.231L89.1654 236.232ZM75.6014 220.731L85.7014 238.231L89.1654 236.232L79.0654 218.732L75.6014 220.731ZM79.0654 238.231L89.1654 220.731L85.7014 218.732L75.6014 236.232L79.0654 238.231ZM85.7014 218.732L75.6014 236.232L79.0654 238.231L89.1654 220.731L85.7014 218.732ZM124.833 230.534C125.364 230.534 125.873 230.323 126.248 229.948C126.623 229.573 126.833 229.064 126.833 228.534C126.833 228.004 126.623 227.495 126.248 227.12C125.873 226.745 125.364 226.534 124.833 226.534V230.534ZM104.633 226.534C104.103 226.534 103.594 226.745 103.219 227.12C102.844 227.495 102.633 228.004 102.633 228.534C102.633 229.064 102.844 229.573 103.219 229.948C103.594 230.323 104.103 230.534 104.633 230.534V226.534ZM118.001 238.234C118.13 238.466 118.304 238.67 118.512 238.835C118.721 238.999 118.96 239.12 119.216 239.191C119.472 239.262 119.739 239.282 120.003 239.248C120.266 239.215 120.52 239.129 120.75 238.996C120.98 238.864 121.181 238.687 121.342 238.475C121.503 238.264 121.62 238.023 121.687 237.766C121.753 237.509 121.768 237.241 121.73 236.978C121.692 236.715 121.602 236.463 121.465 236.235L118.001 238.234ZM111.365 218.735C111.237 218.503 111.063 218.299 110.854 218.134C110.646 217.97 110.407 217.849 110.151 217.778C109.895 217.707 109.628 217.687 109.364 217.721C109.101 217.754 108.847 217.84 108.617 217.973C108.387 218.105 108.185 218.282 108.025 218.494C107.864 218.705 107.747 218.946 107.68 219.203C107.614 219.46 107.599 219.728 107.637 219.991C107.675 220.254 107.765 220.506 107.901 220.734L111.365 218.735ZM107.901 236.235C107.647 236.694 107.583 237.234 107.723 237.739C107.863 238.245 108.197 238.675 108.651 238.937C109.105 239.199 109.644 239.272 110.152 239.141C110.66 239.009 111.095 238.684 111.365 238.234L107.901 236.235ZM121.465 220.734C121.72 220.275 121.784 219.735 121.643 219.23C121.503 218.724 121.17 218.294 120.716 218.032C120.262 217.77 119.723 217.697 119.215 217.828C118.707 217.96 118.271 218.285 118.001 218.735L121.465 220.734ZM124.833 226.534H104.633V230.534H124.833V226.534ZM121.465 236.235L111.365 218.735L107.901 220.734L118.001 238.234L121.465 236.235ZM111.365 238.234L121.465 220.734L118.001 218.735L107.901 236.235L111.365 238.234ZM157.133 230.534C157.664 230.534 158.173 230.323 158.548 229.948C158.923 229.573 159.133 229.064 159.133 228.534C159.133 228.004 158.923 227.495 158.548 227.12C158.173 226.745 157.664 226.534 157.133 226.534V230.534ZM136.933 226.534C136.403 226.534 135.894 226.745 135.519 227.12C135.144 227.495 134.933 228.004 134.933 228.534C134.933 229.064 135.144 229.573 135.519 229.948C135.894 230.323 136.403 230.534 136.933 230.534V226.534ZM150.401 238.234C150.53 238.466 150.704 238.67 150.912 238.835C151.121 238.999 151.36 239.12 151.616 239.191C151.872 239.262 152.139 239.282 152.403 239.248C152.666 239.215 152.92 239.129 153.15 238.996C153.38 238.864 153.581 238.687 153.742 238.475C153.903 238.264 154.02 238.023 154.087 237.766C154.153 237.509 154.168 237.241 154.13 236.978C154.092 236.715 154.002 236.463 153.865 236.235L150.401 238.234ZM143.765 218.735C143.637 218.503 143.463 218.299 143.254 218.134C143.046 217.97 142.807 217.849 142.551 217.778C142.295 217.707 142.028 217.687 141.764 217.721C141.501 217.754 141.247 217.84 141.017 217.973C140.787 218.105 140.585 218.282 140.425 218.494C140.264 218.705 140.147 218.946 140.08 219.203C140.014 219.46 139.999 219.728 140.037 219.991C140.075 220.254 140.165 220.506 140.301 220.734L143.765 218.735ZM140.301 236.235C140.047 236.694 139.983 237.234 140.123 237.739C140.263 238.245 140.597 238.675 141.051 238.937C141.505 239.199 142.044 239.272 142.552 239.141C143.06 239.009 143.495 238.684 143.765 238.234L140.301 236.235ZM153.865 220.734C154.002 220.506 154.092 220.254 154.13 219.991C154.168 219.728 154.153 219.46 154.087 219.203C154.02 218.946 153.903 218.705 153.742 218.494C153.581 218.282 153.38 218.105 153.15 217.973C152.92 217.84 152.666 217.754 152.403 217.721C152.139 217.687 151.872 217.707 151.616 217.778C151.36 217.849 151.121 217.97 150.912 218.134C150.704 218.299 150.53 218.503 150.401 218.735L153.865 220.734ZM157.133 226.534H136.933V230.534H157.133V226.534ZM153.865 236.235L143.765 218.735L140.301 220.734L150.401 238.234L153.865 236.235ZM143.765 238.234L153.865 220.734L150.401 218.735L140.301 236.235L143.765 238.234ZM190.833 230.534C191.364 230.534 191.873 230.323 192.248 229.948C192.623 229.573 192.833 229.064 192.833 228.534C192.833 228.004 192.623 227.495 192.248 227.12C191.873 226.745 191.364 226.534 190.833 226.534V230.534ZM170.633 226.534C170.103 226.534 169.594 226.745 169.219 227.12C168.844 227.495 168.633 228.004 168.633 228.534C168.633 229.064 168.844 229.573 169.219 229.948C169.594 230.323 170.103 230.534 170.633 230.534V226.534ZM184.001 238.234C184.13 238.466 184.304 238.67 184.512 238.835C184.721 238.999 184.96 239.12 185.216 239.191C185.472 239.262 185.739 239.282 186.003 239.248C186.266 239.215 186.52 239.129 186.75 238.996C186.98 238.864 187.181 238.687 187.342 238.475C187.503 238.264 187.62 238.023 187.687 237.766C187.753 237.509 187.768 237.241 187.73 236.978C187.692 236.715 187.602 236.463 187.465 236.235L184.001 238.234ZM177.365 218.735C177.237 218.503 177.063 218.299 176.854 218.134C176.646 217.97 176.407 217.849 176.151 217.778C175.895 217.707 175.628 217.687 175.364 217.721C175.101 217.754 174.847 217.84 174.617 217.973C174.387 218.105 174.185 218.282 174.025 218.494C173.864 218.705 173.747 218.946 173.68 219.203C173.614 219.46 173.599 219.728 173.637 219.991C173.675 220.254 173.765 220.506 173.901 220.734L177.365 218.735ZM173.901 236.235C173.647 236.694 173.583 237.234 173.723 237.739C173.863 238.245 174.197 238.675 174.651 238.937C175.105 239.199 175.644 239.272 176.152 239.141C176.66 239.009 177.095 238.684 177.365 238.234L173.901 236.235ZM187.465 220.734C187.72 220.275 187.784 219.735 187.643 219.23C187.503 218.724 187.17 218.294 186.716 218.032C186.262 217.77 185.723 217.697 185.215 217.828C184.707 217.96 184.271 218.285 184.001 218.735L187.465 220.734ZM190.833 226.534H170.633V230.534H190.833V226.534ZM187.465 236.235L177.365 218.735L173.901 220.734L184.001 238.234L187.465 236.235ZM177.365 238.234L187.465 220.734L184.001 218.735L173.901 236.235L177.365 238.234Z" fill="#2EE5C0"/>
<path d="M133.633 69.531H196.933C204.833 69.531 211.233 75.931 211.233 83.831V176.231C211.233 184.131 204.833 190.531 196.933 190.531H38.4328C30.5328 190.531 24.1328 184.131 24.1328 176.231V83.831C24.1328 75.931 30.5328 69.531 38.4328 69.531H101.633" stroke="#2EE5C0" stroke-width="4" stroke-linecap="round" stroke-linejoin="round"/>
<path d="M133.633 82.933H101.733V53.633C101.733 44.833 108.833 37.633 117.733 37.633C126.533 37.633 133.733 44.733 133.733 53.633V82.933H133.633Z" stroke="#2EE5C0" stroke-width="4" stroke-linecap="round" stroke-linejoin="round"/>
<path d="M117.733 59.634C118.548 59.634 119.354 59.4736 120.106 59.1621C120.858 58.8505 121.542 58.3938 122.117 57.8181C122.693 57.2423 123.15 56.5589 123.461 55.8066C123.773 55.0544 123.933 54.2482 123.933 53.434C123.933 52.6198 123.773 51.8136 123.461 51.0614C123.15 50.3092 122.693 49.6257 122.117 49.0499C121.542 48.4742 120.858 48.0175 120.106 47.706C119.354 47.3944 118.548 47.234 117.733 47.234C116.089 47.234 114.512 47.8872 113.349 49.0499C112.187 50.2127 111.533 51.7897 111.533 53.434C111.533 55.0783 112.187 56.6553 113.349 57.8181C114.512 58.9808 116.089 59.634 117.733 59.634V59.634ZM79.9334 170.732C100.754 170.732 117.633 153.853 117.633 133.032C117.633 112.211 100.754 95.332 79.9334 95.332C59.1124 95.332 42.2334 112.211 42.2334 133.032C42.2334 153.853 59.1124 170.732 79.9334 170.732V170.732Z" stroke="#2EE5C0" stroke-width="4" stroke-linecap="round" stroke-linejoin="round"/>
<path d="M79.9328 140.233C87.5548 140.233 93.7328 134.054 93.7328 126.433C93.7328 118.811 87.5548 112.633 79.9328 112.633C72.3108 112.633 66.1328 118.811 66.1328 126.433C66.1328 134.054 72.3108 140.233 79.9328 140.233Z" stroke="#2EE5C0" stroke-width="4" stroke-linecap="round" stroke-linejoin="round"/>
<path d="M105.433 160.832L106.78 162.311C107.144 161.98 107.372 161.527 107.423 161.039C107.474 160.55 107.343 160.06 107.055 159.662L105.433 160.832ZM54.4334 160.832L52.8114 159.662C52.5241 160.06 52.3935 160.551 52.4444 161.039C52.4953 161.528 52.7242 161.98 53.0874 162.311L54.4334 160.832ZM133.633 112.434C133.103 112.434 132.594 112.645 132.219 113.02C131.844 113.395 131.633 113.904 131.633 114.434C131.633 114.964 131.844 115.473 132.219 115.848C132.594 116.223 133.103 116.434 133.633 116.434V112.434ZM188.333 116.434C188.864 116.434 189.373 116.223 189.748 115.848C190.123 115.473 190.333 114.964 190.333 114.434C190.333 113.904 190.123 113.395 189.748 113.02C189.373 112.645 188.864 112.434 188.333 112.434V116.434ZM133.633 129.234C133.103 129.234 132.594 129.445 132.219 129.82C131.844 130.195 131.633 130.704 131.633 131.234C131.633 131.764 131.844 132.273 132.219 132.648C132.594 133.023 133.103 133.234 133.633 133.234V129.234ZM188.333 133.234C188.864 133.234 189.373 133.023 189.748 132.648C190.123 132.273 190.333 131.764 190.333 131.234C190.333 130.704 190.123 130.195 189.748 129.82C189.373 129.445 188.864 129.234 188.333 129.234V133.234ZM133.633 146.035C133.103 146.035 132.594 146.246 132.219 146.621C131.844 146.996 131.633 147.505 131.633 148.035C131.633 148.565 131.844 149.074 132.219 149.449C132.594 149.824 133.103 150.035 133.633 150.035V146.035ZM188.333 150.035C188.864 150.035 189.373 149.824 189.748 149.449C190.123 149.074 190.333 148.565 190.333 148.035C190.333 147.505 190.123 146.996 189.748 146.621C189.373 146.246 188.864 146.035 188.333 146.035V150.035ZM79.9334 172.732C90.2564 172.732 99.7304 168.729 106.78 162.311L104.087 159.353C97.7374 165.135 89.2104 168.732 79.9334 168.732V172.732V172.732ZM107.055 159.662C100.991 151.257 91.0954 145.832 79.9334 145.832V149.832C89.7714 149.832 98.4754 154.607 103.811 162.002L107.055 159.662V159.662ZM79.9334 145.832C68.7714 145.832 58.8754 151.257 52.8114 159.662L56.0554 162.002C61.3914 154.607 70.0954 149.832 79.9334 149.832V145.832V145.832ZM53.0874 162.311C60.1374 168.729 69.6104 172.732 79.9334 172.732V168.732C70.6564 168.732 62.1304 165.135 55.7794 159.353L53.0874 162.311V162.311ZM133.633 116.434H188.333V112.434H133.633V116.434ZM188.333 112.434H133.633V116.434H188.333V112.434ZM133.633 133.234H188.333V129.234H133.633V133.234ZM188.333 129.234H133.633V133.234H188.333V129.234ZM133.633 150.035H188.333V146.035H133.633V150.035ZM188.333 146.035H133.633V150.035H188.333V146.035ZM318.333 251.434C318.333 250.904 318.123 250.395 317.748 250.02C317.373 249.645 316.864 249.434 316.333 249.434C315.803 249.434 315.294 249.645 314.919 250.02C314.544 250.395 314.333 250.904 314.333 251.434H318.333ZM314.333 257.734C314.333 258.264 314.544 258.773 314.919 259.148C315.294 259.523 315.803 259.734 316.333 259.734C316.864 259.734 317.373 259.523 317.748 259.148C318.123 258.773 318.333 258.264 318.333 257.734H314.333ZM318.333 270.832C318.333 270.302 318.123 269.793 317.748 269.418C317.373 269.043 316.864 268.832 316.333 268.832C315.803 268.832 315.294 269.043 314.919 269.418C314.544 269.793 314.333 270.302 314.333 270.832H318.333ZM314.333 277.632C314.333 278.162 314.544 278.671 314.919 279.046C315.294 279.421 315.803 279.632 316.333 279.632C316.864 279.632 317.373 279.421 317.748 279.046C318.123 278.671 318.333 278.162 318.333 277.632H314.333ZM329.333 266.535C329.864 266.535 330.373 266.324 330.748 265.949C331.123 265.574 331.333 265.065 331.333 264.535C331.333 264.005 331.123 263.496 330.748 263.121C330.373 262.746 329.864 262.535 329.333 262.535V266.535ZM323.133 262.535C322.603 262.535 322.094 262.746 321.719 263.121C321.344 263.496 321.133 264.005 321.133 264.535C321.133 265.065 321.344 265.574 321.719 265.949C322.094 266.324 322.603 266.535 323.133 266.535V262.535ZM309.533 266.535C310.064 266.535 310.573 266.324 310.948 265.949C311.323 265.574 311.533 265.065 311.533 264.535C311.533 264.005 311.323 263.496 310.948 263.121C310.573 262.746 310.064 262.535 309.533 262.535V266.535ZM303.233 262.535C302.703 262.535 302.194 262.746 301.819 263.121C301.444 263.496 301.233 264.005 301.233 264.535C301.233 265.065 301.444 265.574 301.819 265.949C302.194 266.324 302.703 266.535 303.233 266.535V262.535ZM314.333 251.434V257.734H318.333V251.434H314.333ZM314.333 270.832V277.632H318.333V270.832H314.333ZM329.333 262.535H323.133V266.535H329.333V262.535ZM309.533 262.535H303.233V266.535H309.533V262.535Z" fill="#2EE5C0"/>
<path fill-rule="evenodd" clip-rule="evenodd" d="M215.933 77.634L289.933 120.334C298.633 125.334 301.633 136.434 296.533 144.134L255.233 215.634C250.133 225.234 239.133 228.234 230.433 223.234L221.433 218.034L216.633 226.234C216.033 227.134 214.933 227.434 214.133 226.934L208.933 223.934L201.533 236.734C201.233 237.334 200.633 237.734 200.033 237.934L182.333 243.234C181.033 243.634 180.233 245.134 180.533 246.434L184.433 262.034C184.733 263.334 183.933 264.734 182.633 265.134L166.933 269.934C165.633 270.434 164.833 271.834 165.133 273.134L169.133 288.634C169.533 289.934 168.633 291.334 167.333 291.734L151.533 296.634C150.233 297.134 149.433 298.534 149.733 299.834L153.933 315.934C154.333 317.234 153.433 318.634 152.133 319.034C152.133 319.034 140.833 322.534 132.033 325.434C123.233 328.334 118.833 323.934 117.233 318.734C115.633 313.434 111.133 296.734 111.133 296.734C111.033 296.134 111.133 295.434 111.433 294.834L166.533 199.434L161.033 196.234C160.133 195.734 159.833 194.534 160.333 193.634L165.133 185.434L156.533 180.534C147.933 175.434 144.933 164.434 149.933 155.734L191.133 84.234C196.233 75.634 207.233 72.634 215.933 77.634V77.634ZM224.533 119.335C220.533 126.235 222.933 135.035 229.833 139.035C236.733 143.035 245.533 140.635 249.533 133.735C253.533 126.835 251.133 118.035 244.233 114.035C237.333 110.035 228.533 112.435 224.533 119.335V119.335Z" fill="#5E3929"/>
<path fill-rule="evenodd" clip-rule="evenodd" d="M202.333 89.834L283.933 96.334C293.033 96.834 300.433 104.934 300.333 114.634V190.134C300.333 199.634 292.933 207.234 283.733 207.234H274.033V216.334C274.033 217.334 273.333 218.134 272.433 218.134H266.833V233.434C266.833 234.134 266.533 234.734 266.133 235.234L254.233 248.334C253.333 249.334 253.333 250.834 254.233 251.834L264.733 262.834C265.633 263.734 265.633 265.334 264.733 266.334L254.233 278.234C253.333 279.234 253.333 280.834 254.233 281.734L264.733 292.434C265.633 293.334 265.633 294.934 264.733 295.934L254.233 308.134C253.333 309.134 253.333 310.734 254.233 311.634L265.233 322.634C266.133 323.534 266.133 325.134 265.233 326.134C265.233 326.134 257.733 335.034 251.833 341.934C245.933 348.834 240.233 347.734 236.433 344.234C232.633 340.734 220.733 329.334 220.733 329.334C220.333 328.834 220.033 328.234 220.033 327.534V219.034H213.833C212.833 219.034 212.033 218.134 212.033 217.134V207.734H202.333C192.333 207.734 184.233 199.534 184.233 189.534V106.934C184.233 96.934 192.433 89.234 202.333 89.834V89.834ZM229.933 122.534C229.933 130.334 236.233 136.834 243.833 137.134C251.433 137.434 257.533 131.334 257.533 123.634C257.533 115.934 251.433 109.434 243.833 109.034C236.133 108.734 229.933 114.734 229.933 122.534V122.534Z" fill="#8F756A"/>
<path d="M233.633 0.132996C198.033 0.132996 169.133 29.033 169.133 64.633C169.133 79.133 173.833 92.933 182.633 104.133L186.933 96.833C180.433 87.433 176.933 76.333 176.933 64.633C176.933 33.333 202.333 7.933 233.633 7.933C264.933 7.933 290.333 33.333 290.333 64.633C290.333 95.933 264.833 121.233 233.633 121.233C232.433 121.233 231.033 121.133 230.033 121.133C229.933 122.033 229.733 123.133 229.933 125.333C230.133 127.333 230.833 128.933 230.833 128.933C232.233 129.033 232.133 129.033 233.533 129.033C269.133 129.033 298.033 100.133 298.033 64.533C298.033 28.933 269.133 0.132996 233.633 0.132996V0.132996Z" fill="#00236B"/>
<path opacity="0.2" d="M251.933 341.831C257.833 334.931 265.333 326.031 265.333 326.031C266.233 325.031 266.233 323.431 265.333 322.531L254.333 311.531C253.433 310.631 253.433 309.031 254.333 308.031L264.833 295.831C265.733 294.831 265.733 293.231 264.833 292.331L254.333 281.631C253.433 280.731 253.433 279.131 254.333 278.131L264.833 266.231C265.733 265.231 265.733 263.631 264.833 262.731L254.333 251.731C253.433 250.731 253.433 249.231 254.333 248.231L266.233 235.131C266.633 234.631 266.933 234.031 266.933 233.331V221.231C266.933 219.431 265.533 218.031 263.733 218.031L253.333 219.031C248.033 219.031 243.833 223.331 243.833 228.531V342.131C243.833 344.731 246.833 346.331 248.933 344.731C249.933 344.031 250.933 343.031 251.933 341.831V341.831Z" fill="#00236B"/>
</svg>
