<svg width="24" height="24" viewBox="0 0 24 24" fill="none" xmlns="http://www.w3.org/2000/svg">
<circle cx="12" cy="12" r="8.35" stroke="#9FA2AB" stroke-width="1.3"/>
<path d="M9.426 9.11C9.562 8.99 9.71 8.876 9.87 8.768C10.034 8.66 10.21 8.566 10.398 8.486C10.586 8.406 10.79 8.344 11.01 8.3C11.23 8.252 11.468 8.228 11.724 8.228C12.072 8.228 12.388 8.276 12.672 8.372C12.96 8.468 13.206 8.606 13.41 8.786C13.614 8.962 13.772 9.176 13.884 9.428C13.996 9.68 14.052 9.962 14.052 10.274C14.052 10.578 14.008 10.842 13.92 11.066C13.832 11.286 13.722 11.478 13.59 11.642C13.458 11.806 13.312 11.948 13.152 12.068C12.996 12.188 12.848 12.302 12.708 12.41C12.568 12.514 12.446 12.618 12.342 12.722C12.242 12.822 12.182 12.936 12.162 13.064L12.024 13.94H11.01L10.908 12.962C10.884 12.774 10.91 12.61 10.986 12.47C11.066 12.326 11.17 12.196 11.298 12.08C11.43 11.96 11.576 11.846 11.736 11.738C11.896 11.626 12.046 11.506 12.186 11.378C12.326 11.246 12.442 11.1 12.534 10.94C12.63 10.776 12.678 10.582 12.678 10.358C12.678 10.214 12.65 10.086 12.594 9.974C12.542 9.858 12.468 9.76 12.372 9.68C12.276 9.596 12.16 9.532 12.024 9.488C11.892 9.444 11.748 9.422 11.592 9.422C11.364 9.422 11.17 9.448 11.01 9.5C10.854 9.548 10.72 9.604 10.608 9.668C10.5 9.728 10.408 9.784 10.332 9.836C10.256 9.884 10.188 9.908 10.128 9.908C9.984 9.908 9.88 9.848 9.816 9.728L9.426 9.11ZM10.56 16.184C10.56 16.06 10.582 15.942 10.626 15.83C10.674 15.718 10.738 15.622 10.818 15.542C10.898 15.462 10.994 15.398 11.106 15.35C11.218 15.302 11.338 15.278 11.466 15.278C11.594 15.278 11.712 15.302 11.82 15.35C11.932 15.398 12.028 15.462 12.108 15.542C12.192 15.622 12.258 15.718 12.306 15.83C12.354 15.942 12.378 16.06 12.378 16.184C12.378 16.312 12.354 16.432 12.306 16.544C12.258 16.652 12.192 16.746 12.108 16.826C12.028 16.906 11.932 16.968 11.82 17.012C11.712 17.06 11.594 17.084 11.466 17.084C11.338 17.084 11.218 17.06 11.106 17.012C10.994 16.968 10.898 16.906 10.818 16.826C10.738 16.746 10.674 16.652 10.626 16.544C10.582 16.432 10.56 16.312 10.56 16.184Z" fill="#9FA2AB"/>
</svg>
