<svg width="253" height="44" viewBox="0 0 253 44" fill="none" xmlns="http://www.w3.org/2000/svg">
<path d="M20.933 0C16.7929 8.05061e-06 12.7457 1.22772 9.30326 3.52788C5.86084 5.82805 3.1778 9.09735 1.59343 12.9224C0.00906187 16.7474 -0.405475 20.9563 0.402241 25.017C1.20996 29.0776 3.20365 32.8075 6.1312 35.735C9.05875 38.6626 12.7887 40.6562 16.8493 41.4639C20.9099 42.2716 25.1189 41.8571 28.9439 40.2727C32.7689 38.6883 36.0382 36.0053 38.3383 32.5628C40.6385 29.1204 41.8662 25.0732 41.8662 20.933C41.8662 18.1841 41.3247 15.462 40.2727 12.9223C39.2207 10.3826 37.6788 8.07494 35.735 6.13112C33.7912 4.18731 31.4835 2.6454 28.9438 1.59342C26.4041 0.541436 23.682 -7.12708e-06 20.933 0V0ZM40.6854 23.359C40.5901 23.3753 40.4999 23.3901 40.4022 23.4069C39.9159 23.4877 39.427 23.5772 38.9381 23.666C37.7999 23.874 36.6233 24.0879 35.4573 24.1946C33.8118 24.3589 32.154 24.3596 30.5084 24.1966C28.903 24.0353 27.3151 23.7314 25.7636 23.2883C24.6754 22.9757 23.6053 22.603 22.5584 22.172C23.3401 21.7334 24.1311 21.2445 24.9169 20.7152C25.136 20.5701 25.3545 20.4037 25.5728 20.25C25.5967 20.2569 25.6218 20.2678 25.6456 20.2746C26.1995 20.4369 26.7547 20.5721 27.2979 20.6768C27.8488 20.7735 28.4043 20.8423 28.9621 20.8828C29.2801 20.904 29.5986 20.9146 29.9174 20.9146C30.6896 20.9147 31.4605 20.8535 32.223 20.7318C32.7445 20.6488 33.2598 20.5303 33.7653 20.3773C34.2587 20.2316 34.7413 20.0514 35.2095 19.838C36.1036 19.441 36.9387 18.9227 37.6913 18.2977C38.3833 17.7331 38.9727 17.0533 39.4336 16.2883C39.6612 15.9062 39.8399 15.4971 39.9654 15.0705C40.8036 17.7484 41.0493 20.5766 40.6854 23.359V23.359ZM17.0404 31.0449H3.80592C3.67674 30.827 3.53456 30.6181 3.41364 30.395H38.4525C38.3315 30.6181 38.1893 30.827 38.0603 31.0449H17.0404ZM37.6538 31.7134C37.5115 31.9333 37.3661 32.1501 37.2155 32.364H4.6507C4.50009 32.1501 4.35472 31.9333 4.21245 31.7134H37.6537H37.6538ZM16.5163 29.7265H3.09117C2.32818 28.2019 1.76611 26.5848 1.41901 24.9157C1.48113 24.927 1.5429 24.9387 1.60534 24.9499L4.06125 25.4136C4.33155 25.4686 4.61443 25.5143 4.89865 25.5594C5.04374 25.5832 5.1895 25.6064 5.33723 25.6316L5.55916 25.6674C5.70093 25.6912 5.84273 25.7151 5.98647 25.7316L6.63307 25.7999C8.35445 25.9549 10.087 25.9392 11.8052 25.7528C13.4777 25.5661 15.1278 25.2153 16.7316 24.7054C18.2339 24.2375 19.695 23.6465 21.1002 22.9385C22.5054 23.6469 23.9667 24.2378 25.4694 24.7054C27.0733 25.2129 28.7227 25.5637 30.3944 25.7528C32.1133 25.9408 33.8466 25.9566 35.5686 25.7999L36.2165 25.731C36.3583 25.7151 36.4987 25.6912 36.6405 25.668L36.8684 25.6309C37.0115 25.6064 37.1573 25.5832 37.3017 25.56C37.5866 25.5143 37.8689 25.4686 38.1365 25.4143L40.4333 24.9804C40.0853 26.6267 39.528 28.2217 38.775 29.7265L16.5163 29.7265ZM21.0969 18.4057C21.515 18.6328 21.9597 18.8552 22.4577 19.0755C22.6988 19.1927 22.9453 19.2954 23.1904 19.3974L23.3798 19.4749C23.5972 19.5637 23.8158 19.6525 24.0304 19.7293C24.1257 19.7664 24.219 19.7899 24.3144 19.8252C23.2729 20.4487 22.2003 21.0188 21.1008 21.5333C19.9995 21.018 18.9252 20.447 17.8819 19.8225C17.975 19.7877 18.0733 19.7628 18.1653 19.7267C18.4038 19.6432 18.6396 19.5458 18.8735 19.4498L19.0007 19.3974C19.2485 19.2948 19.4983 19.1914 19.7375 19.0741C20.2355 18.8539 20.6795 18.632 21.0969 18.4057H21.0969ZM20.5238 17.3437C20.3834 17.2383 20.2483 17.1237 20.1144 17.0104C20.0382 16.9455 19.962 16.8813 19.8892 16.8223C19.0783 16.1213 18.4646 15.2206 18.1091 14.2094C17.9616 13.7176 17.8861 13.207 17.8852 12.6936C17.8952 12.203 17.963 11.7154 18.0873 11.2407C18.3178 10.4086 18.6554 9.61003 19.0916 8.86493C19.4199 8.2961 19.7807 7.74664 20.1722 7.21927C20.4795 6.80058 20.7386 6.48919 20.9526 6.23876C21.0172 6.16191 21.0587 6.11504 21.1022 6.06527C21.1454 6.11479 21.1853 6.1601 21.2488 6.23545C21.4614 6.48455 21.7205 6.79527 22.0285 7.21397C22.4188 7.74257 22.7797 8.29217 23.1097 8.86029C23.5452 9.60467 23.8823 10.4023 24.1128 11.2333C24.2377 11.7084 24.3057 12.1965 24.3153 12.6876C24.3149 13.2002 24.2404 13.7101 24.0941 14.2014C23.7395 15.2126 23.1265 16.1135 22.3159 16.8143C22.243 16.874 22.1715 16.9349 22.0986 16.9965C21.9608 17.1131 21.8217 17.231 21.6805 17.3377C21.4874 17.4754 21.2913 17.6077 21.0972 17.7377C20.903 17.6074 20.7093 17.4761 20.5238 17.3437L20.5238 17.3437ZM20.933 1.01761C24.9851 1.02455 28.9387 2.26642 32.2669 4.57766C35.5952 6.8889 38.1399 10.1597 39.5618 13.9541C39.5593 13.9951 39.5709 14.0252 39.5661 14.0676C39.5322 14.3615 39.46 14.6497 39.3515 14.9249C39.2238 15.2413 39.0611 15.5424 38.8665 15.8226C38.4072 16.4663 37.8496 17.0339 37.2142 17.5047C36.4951 18.042 35.7128 18.4892 34.8849 18.8363C34.4702 19.0099 34.0144 19.1735 33.5308 19.3233C33.1002 19.4538 32.6258 19.5697 32.0826 19.6784C31.0646 19.8694 30.0294 19.9529 28.994 19.9275C28.4594 19.9185 27.9256 19.8825 27.3947 19.8195C27.062 19.7838 26.7306 19.7201 26.3984 19.6647C26.8964 19.2884 27.3979 18.8863 27.9101 18.4527C28.6786 17.8042 29.41 17.141 30.0845 16.4831C30.6184 15.969 31.0212 15.5165 31.3154 15.1859L31.4068 15.0826C31.7036 14.7454 31.856 14.5559 31.856 14.5559L31.9342 14.4578L31.6784 14.0809L31.5327 14.2366C31.5274 14.2432 30.8874 14.9262 29.7015 15.9485C28.2305 17.2049 26.667 18.3486 25.0241 19.37C24.2136 19.1729 23.4222 18.9043 22.6592 18.5674L22.5214 18.5044C22.3173 18.4123 22.1146 18.3203 21.9172 18.2129C21.8343 18.1676 21.7555 18.1213 21.6732 18.0755C22.0247 17.8661 22.3653 17.6388 22.6936 17.3947C22.8605 17.2642 23.0222 17.1224 23.1826 16.982L23.3614 16.8256C23.4621 16.7197 23.5615 16.613 23.6596 16.5083L23.698 16.4672C23.7909 16.3758 23.876 16.2768 23.9524 16.1711C24.3453 15.6839 24.6543 15.1347 24.8666 14.546C25.0619 13.9411 25.1585 13.3087 25.1529 12.6731C25.1341 12.0906 25.0451 11.5125 24.8879 10.9513C24.6159 10.0476 24.2137 9.18831 23.6939 8.40055C23.3247 7.83112 22.9099 7.29252 22.4537 6.79002C22.0764 6.36038 21.6645 5.9624 21.2221 5.6001H21.2215V5.59954L21.1994 5.58538L21.1254 5.50546L21.0145 5.57975L20.9843 5.58629L20.9639 5.61569C20.5276 5.97468 20.121 6.3683 19.7481 6.79271C19.2913 7.29493 18.8763 7.83356 18.5072 8.40324C17.9879 9.19359 17.5851 10.0546 17.3114 10.9598C17.155 11.5203 17.0669 12.0975 17.049 12.679C17.0424 13.316 17.1397 13.9497 17.3372 14.5552C17.5466 15.1371 17.8511 15.6802 18.2382 16.1625C18.3167 16.2709 18.4038 16.3728 18.4986 16.4672L18.7669 16.7528L19.0286 16.9946C19.1856 17.1317 19.3432 17.2702 19.5095 17.4C19.8353 17.642 20.173 17.8674 20.5215 18.0753C20.4423 18.1197 20.3641 18.166 20.2847 18.2096C20.1025 18.3077 19.915 18.3931 19.7275 18.4786L19.5407 18.5641C18.7769 18.9019 17.9844 19.1707 17.1727 19.3673C15.5313 18.3468 13.9691 17.204 12.4996 15.9485C11.313 14.9263 10.6744 14.2432 10.6678 14.2366L10.5227 14.0803L10.2683 14.4579L10.3458 14.5553C10.3458 14.5553 10.4982 14.7448 10.7956 15.0833L10.8665 15.1635C11.1633 15.4987 11.5694 15.9572 12.116 16.4819C12.8004 17.1497 13.5318 17.8129 14.291 18.4521C14.801 18.8845 15.3013 19.2859 15.7987 19.6618C15.4667 19.7173 15.1341 19.7813 14.8051 19.8169C14.2678 19.8792 13.7305 19.915 13.2065 19.9236C12.1712 19.9507 11.1361 19.8674 10.1185 19.6751C9.57326 19.5651 9.09955 19.4492 8.67094 19.3193C8.19859 19.1749 7.74344 19.0106 7.31811 18.833C6.48932 18.4866 5.7065 18.0391 4.98743 17.5007C4.35084 17.0316 3.79309 16.464 3.33515 15.8193C3.13942 15.5394 2.97648 15.238 2.84954 14.9209C2.74136 14.6451 2.66899 14.3566 2.63422 14.0623C2.58711 13.6524 2.65166 13.2374 2.82106 12.8612C2.86423 12.7639 2.91427 12.6698 2.97078 12.5797L3.03703 12.4756C3.05241 12.4439 3.05949 12.4088 3.05763 12.3735C3.05576 12.3383 3.045 12.3041 3.02635 12.2742C4.65317 8.90588 7.19549 6.0637 10.3623 4.07297C13.5291 2.08223 17.1925 1.02338 20.933 1.01761V1.01761ZM2.11223 14.4779C2.208 15.1173 2.43075 15.7311 2.76737 16.283C3.22836 17.0488 3.81776 17.7294 4.50975 18.295C5.26197 18.9192 6.09635 19.437 6.98951 19.834C7.45788 20.0477 7.94098 20.2275 8.43509 20.372C8.94066 20.5259 9.4562 20.645 9.97807 20.7284C10.739 20.8496 11.5084 20.9105 12.2789 20.9106C12.5996 20.9106 12.9196 20.9 13.2389 20.8788C13.7977 20.8389 14.354 20.7703 14.9058 20.6734C15.4358 20.5714 15.9909 20.4363 16.5541 20.2713C16.5779 20.2645 16.6009 20.2544 16.6247 20.2474C16.8441 20.4018 17.0631 20.5685 17.2835 20.7145C18.0679 21.2438 18.8602 21.7335 19.6427 22.172C18.5959 22.6031 17.5261 22.9757 16.4381 23.2883C14.8864 23.7315 13.2983 24.0355 11.6926 24.1966C10.0466 24.3606 8.38829 24.3599 6.74239 24.1946C5.57837 24.0879 4.40045 23.8733 3.26093 23.6659C2.77201 23.5765 2.2844 23.4877 1.79945 23.4075C1.58315 23.3701 1.38132 23.3366 1.1719 23.3011C0.79256 20.327 1.11459 17.3053 2.11223 14.4779V14.4779ZM20.933 40.8486C17.8787 40.8461 14.866 40.1396 12.1289 38.7841C9.39183 37.4286 7.00402 35.4604 5.15088 33.0324H36.7153C34.8621 35.4604 32.4743 37.4286 29.7372 38.7841C27.0001 40.1396 23.9874 40.8461 20.933 40.8486V40.8486Z" fill="#5E3929"/>
<path d="M21.144 27.8315C22.0774 27.8315 22.834 27.0749 22.834 26.1415C22.834 25.2081 22.0774 24.4514 21.144 24.4514C20.2106 24.4514 19.4539 25.2081 19.4539 26.1415C19.4539 27.0749 20.2106 27.8315 21.144 27.8315Z" fill="#5E3929"/>
<path d="M24.7515 27.7632C25.196 27.7632 25.5564 27.4028 25.5564 26.9583C25.5564 26.5137 25.196 26.1533 24.7515 26.1533C24.3069 26.1533 23.9465 26.5137 23.9465 26.9583C23.9465 27.4028 24.3069 27.7632 24.7515 27.7632Z" fill="#5E3929"/>
<path d="M17.5358 27.7632C17.9803 27.7632 18.3407 27.4028 18.3407 26.9583C18.3407 26.5137 17.9803 26.1533 17.5358 26.1533C17.0912 26.1533 16.7308 26.5137 16.7308 26.9583C16.7308 27.4028 17.0912 27.7632 17.5358 27.7632Z" fill="#5E3929"/>
<path d="M64.584 7.51564L66.4642 6.80248L66.3129 5.89482H60.5644L60.4131 6.78087L62.2933 7.51564V19.4016L60.4131 20.0932L60.5644 21.0225H66.3129L66.4642 20.0932L64.584 19.4016V7.51564ZM69.7274 21.0225H73.8551L74.028 20.1148L72.1478 19.38L68.2147 13.5235L66.6371 12.8319L70.9592 8.4233C71.586 7.79658 72.2127 7.38597 73.0339 7.06181L73.7254 6.78087L73.5742 5.89482H68.7982L68.6469 6.78087L70.527 7.51564L65.4917 12.659V13.5667L69.8787 20.1148L69.7274 21.0225ZM75.4471 15.7278H81.8871L82.06 14.5392H75.6199L75.4471 15.7278ZM88.2029 18.2347L95.918 10.4547V19.4016L94.0811 20.1148L94.2323 21.0225H99.916L100.067 20.1148L98.2088 19.4016V7.51564L100.089 6.78087L99.9376 5.89482H94.2107L94.0378 6.78087L95.918 7.51564V8.46652L88.2029 16.2464V7.51564L90.1047 6.78087L89.9318 5.89482H84.2049L84.032 6.78087L85.9121 7.51564V19.4016L84.0752 20.1148L84.2265 21.0225H89.8886L90.0614 20.1148L88.2029 19.4016V18.2347ZM117.468 6.80248L117.317 5.89482H111.569L111.417 6.80248L113.297 7.51564V12.7671H106.015V7.51564L107.895 6.80248L107.743 5.89482H101.995L101.844 6.80248L103.724 7.51564V19.4016L101.865 20.1148L102.038 21.0225H107.7L107.851 20.1148L106.015 19.4016V13.6748H113.297V19.4016L111.417 20.1148L111.569 21.0225H117.274L117.425 20.1148L115.588 19.4016V7.51564L117.468 6.80248ZM134.254 21.0225H138.339L138.49 20.1148L136.653 19.4016L132.914 13.437L131.618 12.7671L135.594 8.48813C136.221 7.81819 136.891 7.36436 137.755 7.0402L138.382 6.78087L138.231 5.89482H133.239L133.087 6.78087L134.967 7.51564L130.278 12.5294V13.437L134.427 20.1148L134.254 21.0225ZM122.736 20.1148L126.863 13.437V12.5294L122.195 7.51564L123.989 6.78087L123.838 5.89482H118.932L118.759 6.78087L119.386 7.0402C120.25 7.36436 120.942 7.79658 121.569 8.48813L125.545 12.7671L124.227 13.437L120.51 19.4016L118.651 20.1148L118.802 21.0225H122.887L122.736 20.1148ZM129.608 7.51564L131.488 6.78087L131.315 5.89482H125.826L125.675 6.78087L127.555 7.51564V19.4016L125.696 20.1148L125.848 21.0225H131.294L131.466 20.1148L129.608 19.4016V7.51564ZM143.876 18.2347L151.591 10.4547V19.4016L149.754 20.1148L149.906 21.0225H155.589L155.741 20.1148L153.882 19.4016V7.51564L155.762 6.78087L155.611 5.89482H149.884L149.711 6.78087L151.591 7.51564V8.46652L143.876 16.2464V7.51564L145.778 6.78087L145.605 5.89482H139.878L139.705 6.78087L141.586 7.51564V19.4016L139.749 20.1148L139.9 21.0225H145.562L145.735 20.1148L143.876 19.4016V18.2347ZM173.142 6.80248L172.99 5.89482H167.242L167.091 6.80248L168.971 7.51564V12.7671H161.688V7.51564L163.568 6.80248L163.417 5.89482H157.668L157.517 6.80248L159.397 7.51564V19.4016L157.539 20.1148L157.712 21.0225H163.374L163.525 20.1148L161.688 19.4016V13.6748H168.971V19.4016L167.091 20.1148L167.242 21.0225H172.947L173.099 20.1148L171.262 19.4016V7.51564L173.142 6.80248ZM179.057 18.2347L186.772 10.4547V19.4016L184.936 20.1148L185.087 21.0225H190.77L190.922 20.1148L189.063 19.4016V7.51564L190.943 6.78087L190.792 5.89482H185.065L184.892 6.78087L186.772 7.51564V8.46652L179.057 16.2464V7.51564L180.959 6.78087L180.786 5.89482H175.059L174.886 6.78087L176.767 7.51564V19.4016L174.93 20.1148L175.081 21.0225H180.743L180.916 20.1148L179.057 19.4016V18.2347ZM196.783 6.80248H198.749C201.083 6.80248 201.991 8.38008 201.991 10.5412C201.991 12.3349 200.737 14.107 198.706 14.107H197.69V15.0146H198.641C201.602 15.0146 204.217 13.9125 204.217 10.5412C204.217 7.73175 202.596 5.89482 199.462 5.89482H192.763L192.59 6.80248L194.492 7.51564V19.4016L192.633 20.1148L192.785 21.0225H198.49L198.663 20.1148L196.783 19.4016V6.80248ZM209.912 18.2347L217.627 10.4547V19.4016L215.79 20.1148L215.941 21.0225H221.625L221.776 20.1148L219.918 19.4016V7.51564L221.798 6.78087L221.647 5.89482H215.92L215.747 6.78087L217.627 7.51564V8.46652L209.912 16.2464V7.51564L211.814 6.78087L211.641 5.89482H205.914L205.741 6.78087L207.621 7.51564V19.4016L205.784 20.1148L205.936 21.0225H211.598L211.771 20.1148L209.912 19.4016V18.2347ZM239.177 6.80248L239.026 5.89482H233.278L233.126 6.80248L235.007 7.51564V12.7671H227.724V7.51564L229.604 6.80248L229.453 5.89482H223.704L223.553 6.80248L225.433 7.51564V19.4016L223.574 20.1148L223.747 21.0225H229.409L229.561 20.1148L227.724 19.4016V13.6748H235.007V19.4016L233.126 20.1148L233.278 21.0225H238.983L239.134 20.1148L237.297 19.4016V7.51564L239.177 6.80248ZM244.791 6.78087H248.918L250.128 9.87123L251.036 9.71995V5.89482H240.965L240.792 6.78087L242.673 7.51564V19.4016L240.836 20.1148L240.987 21.0225H246.476L246.627 20.1148L244.791 19.4016V6.78087Z" fill="#5E3929"/>
<path d="M61.494 39H60.3984V32.0279H63.8546V39H62.739V33.0239H61.494V39ZM67.7366 34.9661H69.2406V35.9622H67.7366V38.004H69.629V39H66.641V32.0279H69.629V33.0239H67.7366V34.9661ZM73.8843 32.0279C74.4355 32.0279 74.8438 32.174 75.1094 32.4662C75.3817 32.7583 75.5178 33.1866 75.5178 33.751V34.6574C75.5178 35.2218 75.3817 35.6501 75.1094 35.9422C74.8438 36.2344 74.4355 36.3805 73.8843 36.3805H73.3664V39H72.2708V32.0279H73.8843ZM73.3664 33.0239V35.3845H73.8843C74.057 35.3845 74.1898 35.338 74.2828 35.245C74.3757 35.1521 74.4222 34.9794 74.4222 34.7271V33.6813C74.4222 33.429 74.3757 33.2563 74.2828 33.1634C74.1898 33.0704 74.057 33.0239 73.8843 33.0239H73.3664ZM79.1032 34.9661H80.6072V35.9622H79.1032V38.004H80.9956V39H78.0076V32.0279H80.9956V33.0239H79.1032V34.9661ZM84.733 39H83.6374V32.0279H87.0936V39H85.978V33.0239H84.733V39ZM92.9577 33.0239H91.6828V37.2669C91.6828 37.6189 91.6396 37.9077 91.5533 38.1335C91.467 38.3592 91.3508 38.5385 91.2047 38.6713C91.0586 38.7975 90.8893 38.8871 90.6967 38.9402C90.5108 38.9934 90.3149 39.0199 90.1091 39.0199C90.0095 39.0199 89.9198 39.0199 89.8402 39.0199C89.7605 39.0199 89.6742 39.0133 89.5812 39V38.004C89.641 38.0106 89.704 38.0139 89.7704 38.0139C89.8368 38.0139 89.8999 38.0139 89.9597 38.0139C90.1323 38.0139 90.2784 37.9708 90.3979 37.8845C90.5241 37.7981 90.5872 37.6189 90.5872 37.3466V32.0279H94.0533V39H92.9577V33.0239ZM97.938 34.9661H99.442V35.9622H97.938V38.004H99.8304V39H96.8424V32.0279H99.8304V33.0239H97.938V34.9661ZM102.173 32.0279H105.56V33.0239H104.414V39H103.319V33.0239H102.173V32.0279ZM109.149 39H108.053V32.0279H109.149V35.0159H110.394V32.0279H111.51V39H110.394V36.012H109.149V39ZM115.909 38.004C116.082 38.004 116.215 37.9575 116.308 37.8645C116.401 37.7716 116.447 37.5989 116.447 37.3466V36.3008C116.447 36.0485 116.401 35.8758 116.308 35.7829C116.215 35.6899 116.082 35.6434 115.909 35.6434H115.392V38.004H115.909ZM114.296 39V32.0279H115.392V34.6474H115.909C116.461 34.6474 116.869 34.7935 117.135 35.0857C117.407 35.3778 117.543 35.8061 117.543 36.3705V37.2769C117.543 37.8413 117.407 38.2696 117.135 38.5618C116.869 38.8539 116.461 39 115.909 39H114.296ZM118.081 32.0279H119.176V39H118.081V32.0279ZM123.064 34.9661H124.568V35.9622H123.064V38.004H124.956V39H121.968V32.0279H124.956V33.0239H123.064V34.9661ZM133.467 36.9781L134.214 32.0279H135.738V39H134.702V34L133.945 39H132.91L132.093 34.0697V39H131.137V32.0279H132.661L133.467 36.9781ZM142.063 39H140.957L140.768 37.7351H139.423L139.234 39H138.228L139.344 32.0279H140.947L142.063 39ZM139.563 36.7889H140.619L140.091 33.263L139.563 36.7889ZM144.257 32.0279H147.643V33.0239H146.498V39H145.402V33.0239H144.257V32.0279ZM151.232 34.9661H152.736V35.9622H151.232V38.004H153.125V39H150.137V32.0279H153.125V33.0239H151.232V34.9661ZM157.38 32.0279C157.931 32.0279 158.34 32.174 158.605 32.4662C158.878 32.7583 159.014 33.1866 159.014 33.751V34.6574C159.014 35.2218 158.878 35.6501 158.605 35.9422C158.34 36.2344 157.931 36.3805 157.38 36.3805H156.862V39H155.767V32.0279H157.38ZM156.862 33.0239V35.3845H157.38C157.553 35.3845 157.686 35.338 157.779 35.245C157.872 35.1521 157.918 34.9794 157.918 34.7271V33.6813C157.918 33.429 157.872 33.2563 157.779 33.1634C157.686 33.0704 157.553 33.0239 157.38 33.0239H156.862ZM162.629 39H161.503V32.0279H162.48V36.2012L163.605 32.0279H164.98V39H163.994V33.9502L162.629 39ZM171.301 39H170.196L170.007 37.7351H168.662L168.473 39H167.467L168.582 32.0279H170.186L171.301 39ZM168.801 36.7889H169.857L169.329 33.263L168.801 36.7889ZM176.872 33.0239H175.597V37.2669C175.597 37.6189 175.554 37.9077 175.467 38.1335C175.381 38.3592 175.265 38.5385 175.119 38.6713C174.973 38.7975 174.803 38.8871 174.611 38.9402C174.425 38.9934 174.229 39.0199 174.023 39.0199C173.924 39.0199 173.834 39.0199 173.754 39.0199C173.675 39.0199 173.588 39.0133 173.495 39V38.004C173.555 38.0106 173.618 38.0139 173.685 38.0139C173.751 38.0139 173.814 38.0139 173.874 38.0139C174.046 38.0139 174.193 37.9708 174.312 37.8845C174.438 37.7981 174.501 37.6189 174.501 37.3466V32.0279H177.967V39H176.872V33.0239ZM182.37 38.004C182.543 38.004 182.675 37.9575 182.768 37.8645C182.861 37.7716 182.908 37.5989 182.908 37.3466V36.3008C182.908 36.0485 182.861 35.8758 182.768 35.7829C182.675 35.6899 182.543 35.6434 182.37 35.6434H181.852V38.004H182.37ZM180.756 39V32.0279H181.852V34.6474H182.37C182.921 34.6474 183.33 34.7935 183.595 35.0857C183.867 35.3778 184.003 35.8061 184.003 36.3705V37.2769C184.003 37.8413 183.867 38.2696 183.595 38.5618C183.33 38.8539 182.921 39 182.37 39H180.756ZM184.541 32.0279H185.637V39H184.541V32.0279Z" fill="#5E3929"/>
</svg>
