<svg width="28" height="28" viewBox="0 0 28 28" fill="none" xmlns="http://www.w3.org/2000/svg">
<path d="M12.8333 8.16659H15.1666V10.4999H12.8333V8.16659ZM12.8333 12.8333H15.1666V19.8333H12.8333V12.8333ZM14 2.33325C7.55998 2.33325 2.33331 7.55992 2.33331 13.9999C2.33331 20.4399 7.55998 25.6666 14 25.6666C20.44 25.6666 25.6666 20.4399 25.6666 13.9999C25.6666 7.55992 20.44 2.33325 14 2.33325ZM14 23.3333C8.85498 23.3333 4.66665 19.1449 4.66665 13.9999C4.66665 8.85492 8.85498 4.66659 14 4.66659C19.145 4.66659 23.3333 8.85492 23.3333 13.9999C23.3333 19.1449 19.145 23.3333 14 23.3333Z" fill="#2C303A"/>
</svg>
