<svg width="26" height="26" viewBox="0 0 26 26" fill="none" xmlns="http://www.w3.org/2000/svg">
<g clip-path="url(#clip0_381_291)">
<path d="M24.24 6.78388C24.2396 6.76494 24.2384 6.74606 24.2362 6.72735C24.2356 6.72147 24.235 6.71553 24.2342 6.70971C24.2308 6.68688 24.2265 6.66424 24.2205 6.642C24.2198 6.63906 24.2186 6.63629 24.2178 6.63341C24.2123 6.614 24.2057 6.59494 24.1982 6.57618C24.1958 6.57018 24.1932 6.56424 24.1906 6.55829C24.1832 6.54129 24.175 6.52471 24.1659 6.50841C24.1636 6.50435 24.1616 6.50012 24.1593 6.49612C24.1473 6.47577 24.1342 6.456 24.1198 6.43706L24.1162 6.43271C24.1031 6.41594 24.0889 6.39988 24.0739 6.38447C24.0698 6.38024 24.0655 6.37612 24.0613 6.372C24.048 6.35924 24.0342 6.34706 24.0196 6.33541C24.015 6.33177 24.0108 6.328 24.0061 6.32453C23.9878 6.31077 23.9688 6.29765 23.9485 6.28588L13.2961 0.0799395C13.1131 -0.0267076 12.8869 -0.0267076 12.7039 0.0799395L2.05145 6.28582C2.03116 6.29765 2.01216 6.31071 1.99387 6.32447C1.98922 6.32794 1.98492 6.33176 1.98039 6.33535C1.96581 6.347 1.95192 6.35918 1.93869 6.37194C1.93439 6.37606 1.93016 6.38018 1.92604 6.38441C1.91104 6.39982 1.89687 6.41588 1.88381 6.43265L1.88022 6.437C1.86575 6.45594 1.85269 6.47571 1.84069 6.49606C1.83834 6.50006 1.83628 6.50429 1.83404 6.50835C1.82498 6.52465 1.81675 6.54124 1.80934 6.55824C1.80675 6.56418 1.80416 6.57012 1.80175 6.57612C1.79428 6.59488 1.78769 6.61394 1.78216 6.63335C1.78134 6.63624 1.78022 6.63906 1.77945 6.64194C1.77351 6.66418 1.76916 6.68682 1.76581 6.70965C1.76498 6.71547 1.76445 6.72141 1.76375 6.72729C1.76157 6.74606 1.76034 6.76488 1.75998 6.78382C1.75992 6.78724 1.75928 6.79059 1.75928 6.79406V19.2058C1.75928 19.4152 1.87051 19.6087 2.05139 19.7141L12.7039 25.92L12.709 25.9225C12.73 25.9345 12.7517 25.9455 12.7742 25.9549V25.9549C12.7955 25.9637 12.8183 25.9712 12.8408 25.9775C12.8465 25.9791 12.8522 25.9805 12.8579 25.9819C12.8755 25.9863 12.8934 25.9898 12.9116 25.9926C12.9176 25.9935 12.9236 25.9947 12.9297 25.9954C12.9528 25.9981 12.9762 26 13 26C13.0238 26 13.0472 25.9981 13.0703 25.9954C13.0763 25.9947 13.0823 25.9935 13.0884 25.9926C13.1066 25.9898 13.1245 25.9863 13.142 25.9819C13.1477 25.9805 13.1535 25.9792 13.1592 25.9775C13.1816 25.9712 13.2036 25.964 13.2249 25.9552V25.9552C13.2475 25.9458 13.2699 25.9345 13.2909 25.9225L13.2961 25.92L23.9486 19.7141C24.1295 19.6087 24.2407 19.4152 24.2407 19.2058V6.79406C24.2407 6.79065 24.24 6.78735 24.24 6.78388ZM13 12.3192L8.84234 9.89706L18.3262 4.37194L22.4839 6.79412L13 12.3192ZM13 1.269L17.1576 3.69118L7.67375 9.2163L3.5161 6.79412L13 1.269ZM23.0642 18.8678L13.5882 24.3883V22C13.5882 21.6751 13.3249 21.4118 13 21.4118C12.6751 21.4118 12.4117 21.6751 12.4117 22V24.3883L2.93575 18.8678V7.81759L7.38434 10.4092V10.4092L12.4117 13.3381V19.6471C12.4117 19.9719 12.6751 20.2353 13 20.2353C13.3249 20.2353 13.5882 19.9719 13.5882 19.6471V13.3381L23.0642 7.81759V18.8678Z" fill="#2C303A"/>
<path d="M16.7417 14.5812C16.851 14.7688 17.048 14.8734 17.2505 14.8734C17.351 14.8734 17.4529 14.8476 17.546 14.7933L19.698 13.5396C19.9787 13.3761 20.0737 13.016 19.9102 12.7353C19.7467 12.4546 19.3865 12.3596 19.1058 12.5231L16.9538 13.7768C16.6731 13.9403 16.5781 14.3005 16.7417 14.5812Z" fill="#2C303A"/>
</g>
<defs>
<clipPath id="clip0_381_291">
<rect width="26" height="26" fill="white"/>
</clipPath>
</defs>
</svg>
