<svg width="16" height="16" viewBox="0 0 16 16" fill="none" xmlns="http://www.w3.org/2000/svg">
<path d="M7.99984 5.99999C8.3665 5.99999 8.6665 5.69999 8.6665 5.33332V3.99999H9.99984C10.3665 3.99999 10.6665 3.69999 10.6665 3.33332C10.6665 2.96666 10.3665 2.66666 9.99984 2.66666H8.6665V1.33332C8.6665 0.966656 8.3665 0.666656 7.99984 0.666656C7.63317 0.666656 7.33317 0.966656 7.33317 1.33332V2.66666H5.99984C5.63317 2.66666 5.33317 2.96666 5.33317 3.33332C5.33317 3.69999 5.63317 3.99999 5.99984 3.99999H7.33317V5.33332C7.33317 5.69999 7.63317 5.99999 7.99984 5.99999ZM4.6665 12C3.93317 12 3.33984 12.6 3.33984 13.3333C3.33984 14.0667 3.93317 14.6667 4.6665 14.6667C5.39984 14.6667 5.99984 14.0667 5.99984 13.3333C5.99984 12.6 5.39984 12 4.6665 12ZM11.3332 12C10.5998 12 10.0065 12.6 10.0065 13.3333C10.0065 14.0667 10.5998 14.6667 11.3332 14.6667C12.0665 14.6667 12.6665 14.0667 12.6665 13.3333C12.6665 12.6 12.0665 12 11.3332 12ZM5.39984 8.66666H10.3665C10.8665 8.66666 11.3065 8.39332 11.5332 7.97999L13.7865 3.89332C13.9665 3.57332 13.8465 3.16666 13.5265 2.98666C13.2065 2.81332 12.7998 2.92666 12.6265 3.24666L10.3665 7.33332H5.6865L3.0265 1.71332C2.91984 1.47999 2.67984 1.33332 2.4265 1.33332H1.33317C0.966504 1.33332 0.666504 1.63332 0.666504 1.99999C0.666504 2.36666 0.966504 2.66666 1.33317 2.66666H1.99984L4.39984 7.72666L3.49984 9.35332C3.01317 10.2467 3.65317 11.3333 4.6665 11.3333H11.9998C12.3665 11.3333 12.6665 11.0333 12.6665 10.6667C12.6665 10.3 12.3665 9.99999 11.9998 9.99999H4.6665L5.39984 8.66666Z" fill="#5B606D"/>
</svg>
