<svg width="18" height="18" viewBox="0 0 18 18" fill="none" xmlns="http://www.w3.org/2000/svg">
<path d="M16.3427 12.795L12.1802 8.6325L13.3577 7.455L10.5452 4.6425L9.36771 5.82L5.20521 1.6575L1.65771 5.205L5.82021 9.3675L2.25021 12.9375V15.75H5.06271L8.63271 12.18L12.7952 16.3425L16.3427 12.795ZM6.88521 8.3025L3.78021 5.205L5.20521 3.78L6.15771 4.7325L5.26521 5.625L6.32271 6.6825L7.21521 5.79L8.30271 6.8775L6.88521 8.3025ZM9.69771 11.115L11.1227 9.69L12.2102 10.7775L11.3177 11.67L12.3752 12.7275L13.2677 11.835L14.2202 12.7875L12.7952 14.2125L9.69771 11.115Z" fill="#9FA2AB"/>
<path d="M13.254 1.93835L11.3501 3.84222L14.1608 6.65294L16.0647 4.74907L13.254 1.93835Z" fill="#9FA2AB"/>
</svg>
