<svg width="28" height="28" viewBox="0 0 28 28" fill="none" xmlns="http://www.w3.org/2000/svg">
<path d="M14 6.88341C15.3534 6.88341 16.45 7.98008 16.45 9.33341C16.45 10.6867 15.3534 11.7834 14 11.7834C12.6467 11.7834 11.55 10.6867 11.55 9.33341C11.55 7.98008 12.6467 6.88341 14 6.88341ZM14 17.3834C17.465 17.3834 21.1167 19.0867 21.1167 19.8334V21.1167H6.88335V19.8334C6.88335 19.0867 10.535 17.3834 14 17.3834ZM14 4.66675C11.4217 4.66675 9.33335 6.75508 9.33335 9.33341C9.33335 11.9117 11.4217 14.0001 14 14.0001C16.5784 14.0001 18.6667 11.9117 18.6667 9.33341C18.6667 6.75508 16.5784 4.66675 14 4.66675ZM14 15.1667C10.885 15.1667 4.66669 16.7301 4.66669 19.8334V23.3334H23.3334V19.8334C23.3334 16.7301 17.115 15.1667 14 15.1667Z" fill="#2C303A"/>
</svg>
