<svg width="13" height="13" viewBox="0 0 13 13" fill="none" xmlns="http://www.w3.org/2000/svg">
<path d="M6.50001 1.08334C3.51001 1.08334 1.08334 3.51001 1.08334 6.50001C1.08334 9.49001 3.51001 11.9167 6.50001 11.9167C9.49001 11.9167 11.9167 9.49001 11.9167 6.50001C11.9167 3.51001 9.49001 1.08334 6.50001 1.08334ZM6.50001 9.20834C6.20209 9.20834 5.95834 8.96459 5.95834 8.66668V6.50001C5.95834 6.20209 6.20209 5.95834 6.50001 5.95834C6.79793 5.95834 7.04168 6.20209 7.04168 6.50001V8.66668C7.04168 8.96459 6.79793 9.20834 6.50001 9.20834ZM7.04168 4.87501H5.95834V3.79168H7.04168V4.87501Z" fill="#007BC2"/>
</svg>
