<svg width="13" height="13" viewBox="0 0 13 13" fill="none" xmlns="http://www.w3.org/2000/svg">
<path d="M2.42126 11.375H10.5788C11.4129 11.375 11.9329 10.4704 11.5158 9.75001L7.4371 2.70293C7.02001 1.98251 5.98002 1.98251 5.56293 2.70293L1.48418 9.75001C1.0671 10.4704 1.5871 11.375 2.42126 11.375V11.375ZM6.50001 7.58334C6.2021 7.58334 5.95835 7.33959 5.95835 7.04168V5.95834C5.95835 5.66043 6.2021 5.41668 6.50001 5.41668C6.79793 5.41668 7.04168 5.66043 7.04168 5.95834V7.04168C7.04168 7.33959 6.79793 7.58334 6.50001 7.58334ZM7.04168 9.75001H5.95835V8.66668H7.04168V9.75001Z" fill="#F0A92E"/>
</svg>
